<svg xmlns="http://www.w3.org/2000/svg" viewBox="0 0 267.85 273.96"><defs><style>.cls-1{fill:#01adc7;}.cls-1,.cls-10,.cls-11,.cls-12,.cls-13,.cls-14,.cls-15,.cls-16,.cls-17,.cls-18,.cls-19,.cls-2,.cls-20,.cls-21,.cls-22,.cls-23,.cls-24,.cls-25,.cls-26,.cls-27,.cls-28,.cls-29,.cls-3,.cls-30,.cls-31,.cls-32,.cls-33,.cls-34,.cls-35,.cls-36,.cls-37,.cls-38,.cls-39,.cls-4,.cls-40,.cls-41,.cls-42,.cls-43,.cls-44,.cls-45,.cls-46,.cls-47,.cls-48,.cls-49,.cls-5,.cls-6,.cls-7,.cls-8,.cls-9{fill-rule:evenodd;}.cls-2{fill:#6ac3ba;}.cls-3{fill:#eec030;}.cls-4{fill:#eef8fb;}.cls-5{fill:#e3007e;}.cls-6{fill:#a2d2a4;}.cls-7{fill:#96b8d1;}.cls-8{fill:#c84b96;}.cls-9{fill:#de2d8b;}.cls-10{fill:#9ad5db;}.cls-11{fill:#b8398f;}.cls-12{fill:#76c8ce;}.cls-13{fill:#636ab0;}.cls-14{fill:#dca1c7;}.cls-15{fill:#f0f9fd;}.cls-16{fill:#f3fafc;}.cls-17{fill:#e1f2f9;}.cls-18{fill:#f4d3e4;}.cls-19{fill:#844597;}.cls-20{fill:#ecc3db;}.cls-21{fill:#e969a3;}.cls-22{fill:#646bb1;}.cls-23{fill:#e4f3f7;}.cls-24{fill:#53bb9e;}.cls-25{fill:#f3a480;}.cls-26{fill:#e6004d;}.cls-27{fill:#fdf3f8;}.cls-28{fill:#e163a0;}.cls-29{fill:#d9348c;}.cls-30{fill:#fcecf3;}.cls-31{fill:#e7c072;}.cls-32{fill:#ba3b90;}.cls-33{fill:#e4da61;}.cls-34{fill:#c35d9f;}.cls-35{fill:#f2e3f0;}.cls-36{fill:#edcde1;}.cls-37{fill:#ed8b3e;}.cls-38{fill:#fffad7;}.cls-39{fill:#eee;}.cls-40{fill:#9bd5db;}.cls-41{fill:#cce9f1;}.cls-42{fill:#ebea61;}.cls-43{fill:#d7368d;}.cls-44{fill:#e7f0f9;}.cls-45{fill:#f8b652;}.cls-46{fill:#e064a1;}.cls-47{fill:#1f78bf;}.cls-48{fill:#1e77be;}.cls-49{fill:#24ace5;}</style></defs><title>bg2資產 2@1x</title><g id="圖層_2" data-name="圖層 2"><g id="圖層_1-2" data-name="圖層 1"><path class="cls-1" d="M0,145.92q0-10.59,0-21.19a2.39,2.39,0,0,1,1.76-.41c2.21,0,4.42,0,6.63,0l96.24,0a9.69,9.69,0,0,1,1,0,18.94,18.94,0,0,0,2.78,0c6.62,0,13.23,0,19.85,0a12.44,12.44,0,0,0,2.2,0h19.32c5.24,0,9.42,3.11,10.64,7.88a11.09,11.09,0,0,1-5.5,13,7.74,7.74,0,0,1-2.87.89,24.87,24.87,0,0,1-4.06.24l-103.66,0a9.58,9.58,0,0,1-1,0,24.57,24.57,0,0,0-3.49,0H2.28A3.07,3.07,0,0,1,0,145.92Z"/><path class="cls-2" d="M0,34.62q0-8.38,0-16.76c.6-.51,1.33-.33,2-.33l58.07,0H90.35c5.5,0,11,0,16.49,0,4.38,0,7.82,1.66,9.85,5.55a11.35,11.35,0,0,1-.34,11.43,9.9,9.9,0,0,1-.7,1.07,11.12,11.12,0,0,1-8.83,3.89c-8.44,0-16.87,0-25.31,0a8.06,8.06,0,0,1-1.85-.12,1.33,1.33,0,0,1-.41-.18c-1.81-2-3.84-3.6-6.63-4A18.46,18.46,0,0,0,70.08,35H2.36C1.56,35,.72,35.2,0,34.62Z"/><path class="cls-3" d="M0,.42C29.76.41,104.76,0,111.08,0a8.91,8.91,0,0,1,8.68,7.69,9.31,9.31,0,0,1-6,9.93,6.16,6.16,0,0,1-2.87.31,50.89,50.89,0,0,0-7-.24H90.43l-89.05,0A2.85,2.85,0,0,1,0,17.62Q0,9,0,.42Z"/><path class="cls-4" d="M46.83,183.86c-12.83,0-25.65,0-38.48,0A9.13,9.13,0,0,1,1,180.1a3,3,0,0,0-.91-.88q0-5.82,0-11.64c.59-2.09,2.24-3.19,4-4.12a10.68,10.68,0,0,1,5.15-1.18c8.51,0,17,0,25.54,0a8,8,0,0,1,1.85.12,1.26,1.26,0,0,1,.39.2c.42.45.88.87,1.33,1.3a9.31,9.31,0,0,0,6.79,2.8q21.69,0,43.37,0a3.41,3.41,0,0,1,2.25.36,1.6,1.6,0,0,1,.29,1q.07,2.9,0,5.79a1.71,1.71,0,0,1-.24.89c-.6.6-1.37.44-2.09.44q-16.34,0-32.68,0a8.48,8.48,0,0,0-6.52,2.79,8,8,0,0,0-2.06,4,5.31,5.31,0,0,1-.44,1.79Z"/><path class="cls-5" d="M105.73,124.65c-.39,0-.78,0-1.16,0L0,124.73q0-4.42,0-8.85a3.08,3.08,0,0,1,2.23-.41c16.32,0,32.65-.09,49,0,19.77.1,39.54,0,59.32,0a8.83,8.83,0,0,1,1.85.08,1,1,0,0,1,.36.2,1.88,1.88,0,0,1,.24,1.56,8.75,8.75,0,0,1-4.91,6.78A9.13,9.13,0,0,1,105.73,124.65Z"/><path class="cls-6" d="M0,77.7q0-4.31,0-8.62a2.71,2.71,0,0,1,2-.42H17.74l79.62,0a12.34,12.34,0,0,1,2.21.09,1.82,1.82,0,0,1,.43.09,1.08,1.08,0,0,1,.35.23c2.38,3,2.62,9.48-.44,13a11,11,0,0,1-5.5,3.59,3.23,3.23,0,0,1-2,.12,1.23,1.23,0,0,1-.22-.35,9.6,9.6,0,0,0-2.57-5.11,8.31,8.31,0,0,0-5.22-2.26c-.62,0-1.24,0-1.86,0l-80.13,0A3.31,3.31,0,0,1,0,77.7Z"/><path class="cls-7" d="M0,77.7l84,0a8.44,8.44,0,0,1,8.38,8.09,1.36,1.36,0,0,1-1.15.45c-.46,0-.93,0-1.4,0l-87.41,0c-.83,0-1.72.2-2.46-.41Q0,81.77,0,77.7Z"/><path class="cls-8" d="M0,60.93q0-2.56,0-5.12a2.73,2.73,0,0,1,2-.4H20.64c16.29,0,32.58-.06,48.87,0a12.33,12.33,0,0,0,9-3.24A1.48,1.48,0,0,1,79,52c2.39-.11,4.79,0,7.19,0a1.7,1.7,0,0,1,1.2.33c1.59,2.42.81,7.45-1.37,8.88a6.21,6.21,0,0,1-1.85.15l-82,0A2.89,2.89,0,0,1,0,60.93Z"/><path class="cls-9" d="M0,85.85l90.67,0c.58,0,1.16,0,1.74-.05l0,.06a.69.69,0,0,1-.13,1.09,4.57,4.57,0,0,1-2.06.22q-16.92,0-33.84,0c-5.32,0-9.55,2-12.49,6.5a3.13,3.13,0,0,1-1.18,1.26,4.88,4.88,0,0,1-1.84.2H2a2.72,2.72,0,0,1-2-.42Q0,90.27,0,85.85Z"/><path class="cls-9" d="M0,60.93l84.47,0c.58,0,1.16,0,1.74,0,1.43-.65,2.93-.27,4.4-.31,5.59-.06,11.19-.15,16.78,0a1.18,1.18,0,0,1,.37.16c.5.49.31,1.08.19,1.64a8.64,8.64,0,0,1-7.33,6.85.85.85,0,0,1-.52-.16l-.2-.05a3.92,3.92,0,0,1-1.2-.9A10.2,10.2,0,0,0,91.52,65c-.54,0-1.09,0-1.63,0l-87.52,0c-.8,0-1.65.19-2.35-.4Q0,62.79,0,60.93Z"/><path class="cls-10" d="M0,64.66l91.15,0A9.91,9.91,0,0,1,99.91,69L98.4,69,0,69.08Q0,66.87,0,64.66Z"/><path class="cls-11" d="M112.69,115.85,0,115.88q0-4.07,0-8.15a1.62,1.62,0,0,1,1.18-.4c3,0,6-.08,9.07,0a11.4,11.4,0,0,1,1.27-.06H41.14a7.35,7.35,0,0,1,1.62.09,1.42,1.42,0,0,1,.63.23A14,14,0,0,0,55.87,115q27.12,0,54.24,0c.76,0,1.57.15,2.2-.48.67-.25.61.29.71.66a1,1,0,0,1-.17.57Z"/><path class="cls-12" d="M0,34.62q35.64,0,71.27,0A9.26,9.26,0,0,1,79.4,39a1.64,1.64,0,0,1-1.39.45c-.89,0-1.78,0-2.68,0l-65.28,0a8.23,8.23,0,0,1-1.16,0c-2.38,0-4.76,0-7.14,0A2.35,2.35,0,0,1,0,39Q0,36.83,0,34.62Z"/><path class="cls-13" d="M78.69,52.32a9.45,9.45,0,0,1-7.56,3.46q-18.57,0-37.13,0H0q0-4.54,0-9.08a1,1,0,0,1,.6-.32,34.54,34.54,0,0,1,7.31.13A3.44,3.44,0,0,1,9,47.9a8,8,0,0,0,6.7,4c.54,0,1.09,0,1.63,0H76.49C77.24,51.9,78.05,51.69,78.69,52.32Z"/><path class="cls-14" d="M0,94.69l42.85,0,.11.16a19.29,19.29,0,0,1-1.37,4.46,1.57,1.57,0,0,1-.4.15,2.92,2.92,0,0,1-.7.07c-7.6,0-15.2,0-22.8,0-3.41,0-6.82.05-10.23,0-1.94,0-3.88,0-5.82,0A2.22,2.22,0,0,1,0,99.12Q0,96.91,0,94.69Z"/><path class="cls-15" d="M0,99.12l17.69,0c-.07.6-.61.52-1,.62a7.76,7.76,0,0,0-5.94,6.43,2.71,2.71,0,0,1-.52,1.51L0,107.73Q0,103.42,0,99.12Z"/><path class="cls-16" d="M7.92,46.72H0Q0,42.88,0,39l8.84,0a1.39,1.39,0,0,1-.17,1.11,8.43,8.43,0,0,0-.6,5.44A1,1,0,0,1,7.92,46.72Z"/><path class="cls-1" d="M192.39,252.7c.62,0,1.24,0,1.86,0h42.49a10,10,0,0,1,10.16,10.16c0,5.42-2.58,9.23-7.24,10.64a8.61,8.61,0,0,1-2.51.39L87.67,274a10.16,10.16,0,0,1-9.84-9.8c-.14-4.83,1.68-8.42,6.08-10.55a19.4,19.4,0,0,1,2.28-.79,1.41,1.41,0,0,1,1.15-.44c.47,0,.93,0,1.4,0l101.18,0A3.63,3.63,0,0,1,192.39,252.7Z"/><path class="cls-5" d="M192.39,252.7c-.85,0-1.7,0-2.56,0l-101.55,0c-.7,0-1.4,0-2.09,0-5,0-9.93-.2-14.89,0a8.54,8.54,0,0,1-8.72-10.09,1.61,1.61,0,0,1,1.46.07,12.94,12.94,0,0,0,4.68.72c3.64,0,7.29,0,10.94,0,39.17-.07,78.33.1,117.5,0a4,4,0,0,1,1.83.18.49.49,0,0,1,.21.39,8.55,8.55,0,0,1-3.07,6.72A10.6,10.6,0,0,1,192.39,252.7Z"/><path class="cls-2" d="M42.22,213.92l-12.9,0a10,10,0,0,1-10.15-10.16c0-5.37,2.54-9.18,7.12-10.61a9.46,9.46,0,0,1,2.85-.43q12.44,0,24.88,0c1.42-.69,2.91-.32,4.37-.26a1.26,1.26,0,0,1,.4.16c.46.42.78,1,1.2,1.41a8.11,8.11,0,0,0,6.29,2.76H81.5a4.36,4.36,0,0,1,1.72.17c.53.73-.23.71-.54.83a10.15,10.15,0,0,0-3,1.65,8.5,8.5,0,0,0-2.84,5.3c-.07.45,0,1-.5,1.24a5,5,0,0,1-2,.19H51.53c-4.8,0-7.62,2.17-8.84,6.78a2.76,2.76,0,0,1-.31.87Z"/><path class="cls-11" d="M199.12,243.89l-127.19,0c-3.17,0-6.36.22-9.35-1.2l.08-.43c-.35-1.25.41-2.19,1-3.07a8.24,8.24,0,0,1,6.84-3.81c6.74-.09,13.47-.08,20.21,0,2-.08,4-.08,6,0a9.65,9.65,0,0,1,1.28-.06H127.3a6.81,6.81,0,0,1,2,.13,1.2,1.2,0,0,1,.4.2,12.23,12.23,0,0,1,1.25,1.52c2.65,3.64,6.19,5.8,10.72,5.82,18.54.07,37.08,0,55.61,0a1.79,1.79,0,0,0,1.49-.48c.68-.26.6.29.71.65a1,1,0,0,1-.17.57Z"/><path class="cls-17" d="M90.65,235.73l-19.16,0c-4.53,0-7.46,2.17-8.83,6.53-2.12-.64-3.2-2.36-4.07-4.16a10.93,10.93,0,0,1-.43-8.56A9.82,9.82,0,0,1,65.58,223c.22-.05.46,0,.63-.23a1.26,1.26,0,0,1,1.05-.39c3.75,0,7.51-.14,11.26.06a1.22,1.22,0,0,1,.4.12,12.77,12.77,0,0,1,1.45,1.66,8,8,0,0,0,6.13,2.61c1,0,2,0,3,0,.5,0,1,0,1.34.51a44.67,44.67,0,0,1,.11,7.81A.87.87,0,0,1,90.65,235.73Z"/><path class="cls-18" d="M78.77,222.73l-12.56,0c-5.12,0-10.24,0-15.36,0A8.27,8.27,0,0,1,43,217.86a8.16,8.16,0,0,1-.81-3.93v-.06a2.37,2.37,0,0,1,1.66-.38H77.39a3.51,3.51,0,0,1,1.38.17c.51.26.45.7.27,1.09a9.41,9.41,0,0,0-.22,7.42A.68.68,0,0,1,78.77,222.73Z"/><path class="cls-19" d="M58.51,192.67H54c-3.24-.92-5.65-2.77-6.75-6.08a9.07,9.07,0,0,1-.44-2.73h.07a1.36,1.36,0,0,1,1.06-.39c3.4,0,6.8-.07,10.2,0a1.58,1.58,0,0,1,.56.13c.54.28.36.73.18,1.1a8.46,8.46,0,0,0-.32,7.18A.71.71,0,0,1,58.51,192.67Z"/><path class="cls-2" d="M152.36,145.66c.38.41.87.2,1.31.2h40.21A10.13,10.13,0,0,1,204.05,156a12.1,12.1,0,0,1-2.15,7.29,2.1,2.1,0,0,1-.94,1.41,9.93,9.93,0,0,1-6.64,2.72c-9.07.07-18.14,0-27.21,0a4.92,4.92,0,0,1-1-.12,1.38,1.38,0,0,1-.41-.18,11,11,0,0,0-6.53-4,18.59,18.59,0,0,0-2.78-.13l-117.09,0a3.87,3.87,0,0,1-2.48-.39l-.17,0a11.72,11.72,0,0,1-1.25-9.39c1.11-4,4-6.29,7.93-7.33.66,0,1.32,0,2,0q52.11,0,104.22,0A26.83,26.83,0,0,1,152.36,145.66Z"/><path class="cls-19" d="M133.22,116.11a9.25,9.25,0,0,1-4.67,8.55H105.73a8.79,8.79,0,0,0,6.23-4.88,9,9,0,0,0,.8-3.7,1.81,1.81,0,0,1,1.43-.33q8.81,0,17.63,0C132.31,115.74,132.85,115.64,133.22,116.11Z"/><path class="cls-20" d="M7.92,46.72a9.5,9.5,0,0,1,.93-7.64c.5,0,1,0,1.51,0l67.54,0c.5,0,1,0,1.51,0l.23.07c1.26.94,1.54,2.37,1.78,3.76.55,3.3.24,6.45-2,9.16a1.68,1.68,0,0,1-.49.29l-.23.06-8.14,0c-17.91,0-35.83,0-53.74,0C12.58,52.34,9.6,50.63,7.92,46.72Z"/><path class="cls-21" d="M79.15,52a12,12,0,0,0,2.16-7.41,12.67,12.67,0,0,0-1.66-5.58c8.79,0,17.58-.11,26.36,0,3.76,0,6.92-1,9.44-3.8,6.7,0,13.41,0,20.11,0a8.51,8.51,0,0,1,7.07,13.36,8,8,0,0,1-6.88,3.63q-16.22,0-32.44,0c-.5,0-1,0-1.51,0a1.46,1.46,0,0,1-1.3.23,5.34,5.34,0,0,0-1.61-.16c-1.28,0-2.56,0-3.84,0-5.11.14-10.22-.38-15.33-.22A.76.76,0,0,1,79.15,52Z"/><path class="cls-12" d="M36.78,162.69l2.44,0q59.18,0,118.36,0a9.35,9.35,0,0,1,8.24,4.37c-.36.45-.89.42-1.39.44-.77,0-1.55,0-2.33,0l-65.6,0a10,10,0,0,1-1.16,0c-1.11,0-2.21,0-3.32,0a2.1,2.1,0,0,1-1.41-.36c-2.83,0-5.65,0-8.48,0-12.55,0-25.1,0-37.65,0A9,9,0,0,1,36.78,162.69Z"/><path class="cls-22" d="M59,183.88H46.9a8.73,8.73,0,0,1,8.6-9.08c11.21,0,22.42,0,33.62,0,.5,0,1,0,1.51,0a5.54,5.54,0,0,1,3.66-.17,2.22,2.22,0,0,1,.89,1,8.07,8.07,0,0,0,7.53,4.37c5,0,10,0,15,0a2.42,2.42,0,0,1,1.78.35c.16.45-.23.54-.49.62a9.64,9.64,0,0,0-4.12,2.7,1.66,1.66,0,0,1-.9.5,7.86,7.86,0,0,1-1.74.12H61.09C60.37,184.26,59.6,184.43,59,183.88Z"/><path class="cls-23" d="M94.35,174.76l-3.72,0q0-3.8,0-7.61h4.65c.18.45-.06.83-.23,1.21a8.22,8.22,0,0,0-.61,5.21C94.53,173.94,94.68,174.38,94.35,174.76Z"/><path class="cls-3" d="M133.22,116.11l-20.45,0-.08-.22h.08c.48-.46,1.09-.33,1.66-.33q7.62,0,15.24,0a10.18,10.18,0,0,0,3-.4,2.63,2.63,0,0,1,.9-.09c2.22,0,4.44-.09,6.67-.06.56,0,1.17-.07,1.62.41a6.44,6.44,0,0,1-3.09.69Z"/><path class="cls-24" d="M99.68,82.06a14.7,14.7,0,0,0,1.93-4.64,11.82,11.82,0,0,0-1.41-8.12,7.22,7.22,0,0,1,2.85-.36c5.47,0,10.94,0,16.4,0a3.09,3.09,0,0,1,1,.07A8.93,8.93,0,0,1,127,78.16a9.65,9.65,0,0,1-1.62,4.53,1.86,1.86,0,0,1-1.15.92,1.06,1.06,0,0,1-.41-.07,10.35,10.35,0,0,0-5-1.07c-5.76,0-11.51,0-17.27,0C100.9,82.48,100.21,82.62,99.68,82.06Z"/><path class="cls-25" d="M99.68,82.06l20.32,0a6.63,6.63,0,0,1,4.2,1.36c.07.75-.47,1.12-1,1.45a8.88,8.88,0,0,1-4.8,1.51c-8.13,0-16.26,0-24.38,0-.53,0-1.1.1-1.53-.36a.65.65,0,0,1,0-.21A12.47,12.47,0,0,0,99.68,82.06Z"/><path class="cls-26" d="M119.69,69.24l-17.4,0-2.09,0-.09-.23.5,0a31.2,31.2,0,0,1,6.81-.4c3.52,0,7,0,10.57,0C118.59,68.65,119.34,68.44,119.69,69.24Z"/><path class="cls-27" d="M90.6,60.86H86.24a9.18,9.18,0,0,0,1-8.35c.18-.54.65-.33,1-.32a8.6,8.6,0,0,1,2.42.1,24.09,24.09,0,0,1,.08,8.41C90.74,60.75,90.65,60.8,90.6,60.86Z"/><path class="cls-28" d="M90.59,52.32c-1.11,0-2.25-.28-3.34.18a2.34,2.34,0,0,0-1.47-.22l-6.86,0,.22-.23,20.12,0c.45,0,.94-.14,1.35.19a1.6,1.6,0,0,1-1.39.44c-2.44,0-4.88,0-7.32,0A1.9,1.9,0,0,1,90.59,52.32Z"/><path class="cls-29" d="M42.88,94.67a14.6,14.6,0,0,1,9.49-7.59,11.18,11.18,0,0,1,3-.3q18.55,0,37.11,0l.13.13a1.67,1.67,0,0,1,0,1.25,8.54,8.54,0,0,1-6.72,6.62,10.4,10.4,0,0,1-1,.25,10.85,10.85,0,0,1-1.74.08H45a3.14,3.14,0,0,1-2.13-.38Z"/><path class="cls-21" d="M92.5,86c8.73,0,17.46,0,26.19,0a6.9,6.9,0,0,0,5.51-2.57h.2a4.92,4.92,0,0,1,2.76,2.7.57.57,0,0,1-.4.89,6.7,6.7,0,0,1-1.73.12H94.59a2.79,2.79,0,0,1-2.11-.42l0,0C92.48,86.51,92.49,86.27,92.5,86Z"/><path class="cls-5" d="M119.69,69.24c-.41-.33-.89-.19-1.34-.19l-17.74,0a9.56,9.56,0,0,0,5-2.78,8.52,8.52,0,0,0,2.17-5.32c4.33,0,8.66-.11,13,0a8.38,8.38,0,0,1,7.94,8.87.68.68,0,0,1-.54.17c-2.49-.56-5.08,0-7.56-.65Z"/><path class="cls-30" d="M90.59,52.32l10-.08,1.18.07a10.41,10.41,0,0,1,4,2.67,8.58,8.58,0,0,1,2.06,5.86H90.6Q90.59,56.59,90.59,52.32Z"/><path class="cls-31" d="M133.46,115.37h-.7a11.16,11.16,0,0,1-2.29.23H114.11a1.92,1.92,0,0,1-1.34-.22c-.09-.32,0-.68-.26-.95a2,2,0,0,1-.6-1,8.19,8.19,0,0,0-8.16-5.38q-29.07,0-58.15,0a3.38,3.38,0,0,1-2.25-.36l-.47-.07c-1.36-1.72-1.57-3.8-1.73-5.87a3.69,3.69,0,0,1,.33-2.68l.24-.06a2.68,2.68,0,0,1,1.89-.39H57.44l62.58,0c.35,0,.7,0,1,0,3.27,0,6.55,0,9.82,0,2.39,0,4.78-.11,7.16.08a1.35,1.35,0,0,1,.4.1c1.32,1.1,1.64,2.67,1.94,4.23a11,11,0,0,1-4.78,11.51A7.49,7.49,0,0,1,133.46,115.37Z"/><path class="cls-32" d="M43.34,107.76c.27,0,.54,0,.81,0l60.24,0a8.39,8.39,0,0,1,8,5.94,5,5,0,0,1,.11.8c.07.68-.19,1-.92.95-.46,0-.93,0-1.39,0-18.34,0-36.67.07-55,0a12.86,12.86,0,0,1-11-5.88C43.84,108.94,43.3,108.5,43.34,107.76Z"/><path class="cls-33" d="M41.47,99.13a19.78,19.78,0,0,0,1.4,8.55H10.28a8.3,8.3,0,0,1,7.14-8.39,1.14,1.14,0,0,0,.3-.16Z"/><path class="cls-33" d="M112.77,115.39h20a5.57,5.57,0,0,1-2.46.46H112.77C112.77,115.69,112.77,115.54,112.77,115.39Z"/><path class="cls-34" d="M121.13,99l-2.44,0-75.59,0-1.39,0c-.11-1.58.74-2.91,1.14-4.36l18.59,0,23.81,0a31.59,31.59,0,0,1,5.18-.41q17,0,34,0a8.19,8.19,0,0,1,2.08.12c.94.43.45,1,.09,1.49A7.34,7.34,0,0,1,121.13,99Z"/><path class="cls-21" d="M166.06,167.09c8.56,0,17.13-.13,25.69,0,4,.06,7.43-.77,10.15-3.81,6.51,0,13,.08,19.54,0a8.76,8.76,0,0,1,7.76,3.77,5.29,5.29,0,0,1,1.68,4,8.74,8.74,0,0,1-6.41,9.21c-.4.12-.81.25-1.23.34a13.33,13.33,0,0,1-2.09.09h-29.8c-1,0-2-.13-3-.07a3.23,3.23,0,0,1-1.14-.07,5.51,5.51,0,0,0-1.72-.18h-18a5.54,5.54,0,0,1-1.61-.1c-.65-.38-.33-.87-.08-1.29a11.23,11.23,0,0,0,.41-11C166,167.76,165.82,167.45,166.06,167.09Z"/><path class="cls-3" d="M188.22,180.35l34.12,0,1.27,0c2.64-.57,5.32-.32,8-.35,3.17,0,6.35-.05,9.52,0a8.77,8.77,0,0,1,7,3.59,2.1,2.1,0,0,1,.61,1.47,10.11,10.11,0,0,1,.5,6,8.4,8.4,0,0,1-7.91,6.3h-26c-.43-.32-.4-.82-.5-1.26a8.13,8.13,0,0,0-8.39-6.75c-3.41,0-6.83,0-10.24,0a4,4,0,0,1-1.72-.19c-.46-.29-.43-.78-.49-1.24a8.13,8.13,0,0,0-4.91-6.8C188.68,180.92,188.22,180.88,188.22,180.35Z"/><path class="cls-35" d="M138.59,99.1l-.26-.07c-.69-.31-1.09-1-1.63-1.45a10.05,10.05,0,0,0-7-2.61,4.3,4.3,0,0,1-2.59-.29,1.76,1.76,0,0,1,.14-1.32,21.44,21.44,0,0,0,.63-3.22.82.82,0,0,1,.51-.44,12.74,12.74,0,0,0,4.63-3,.48.48,0,0,1,.33,0c7.17,0,14.34,0,21.51.06a13.42,13.42,0,0,1,10.67,5.12,14.43,14.43,0,0,1,.06,18.38,13.27,13.27,0,0,1-10.4,5.09c-4.37.13-8.76,0-13.14,0,0-.56.46-.66.79-.88a8.34,8.34,0,0,0,3.66-8.33A8,8,0,0,0,140,99.58,2.89,2.89,0,0,1,138.59,99.1Z"/><path class="cls-19" d="M248.71,185c-.34-.47-.65-1-1-1.41a8.35,8.35,0,0,0-6.76-3.28l-17.33,0a10.77,10.77,0,0,0,4.16-2.14,8.48,8.48,0,0,0,1.73-10.47l-.31-.62c10.12,0,20.25,0,30.37,0,4,0,8,4,8.25,8a9,9,0,0,1-6.92,9.77,5.65,5.65,0,0,1-1.61.16Z"/><path class="cls-1" d="M213.11,205.89l20.83,0c6.17,0,12.34.12,18.5,0a10.7,10.7,0,0,1,2.59,21l-.16-.13a4.34,4.34,0,0,1-.49-1.42A13.7,13.7,0,0,0,241,215.14q-12.51,0-25,0a15.56,15.56,0,0,1-1.86,0,1.74,1.74,0,0,1-.36-.09,42.59,42.59,0,0,1-3-3.54c.06-.66.61-1,.91-1.57A18.43,18.43,0,0,0,213,206Z"/><path class="cls-36" d="M247.36,242a20,20,0,0,1-9.05,1.41c-3.21-.07-6.43,0-9.64,0,.06-.6.59-.79,1-1.07a8.26,8.26,0,0,0-2.08-14.49,2.11,2.11,0,0,1-.83-.4c-.32-.34,0-.45.24-.58a4.75,4.75,0,0,1,1.5-.14c8.56,0,17.12,0,25.68,0a1.4,1.4,0,0,1,.89.18v.08a13.81,13.81,0,0,1-2.68,10.87,12.88,12.88,0,0,1-4.31,3.76C247.93,241.85,247.62,241.9,247.36,242Z"/><path class="cls-5" d="M194.25,188.89l11.94,0c5.25,0,8.64,3.14,9.06,8.38a8.82,8.82,0,0,1-2.35,6.11l-.19-.08a3.79,3.79,0,0,1-.83-1.38,7.84,7.84,0,0,0-7.21-4.49c-5.16-.07-10.31,0-15.47,0a4.49,4.49,0,0,1-1.72-.16c-.53-.72.21-.7.53-.83a9.66,9.66,0,0,0,3.21-1.79,8.26,8.26,0,0,0,2.58-4.56,3.28,3.28,0,0,1,.32-1.11Z"/><path class="cls-1" d="M133.37,86.7l-.19,0a3.14,3.14,0,0,1-2.11.39A17.39,17.39,0,0,1,127.5,87a.79.79,0,0,1-.35-.27,8.91,8.91,0,0,0-2.76-3.28,8.6,8.6,0,0,0-.82-12.52,15.46,15.46,0,0,0-2.93-1.61c2.71,0,5.44-.32,8.1.48,6.32,2.55,8,8.83,6.1,14.18A25.49,25.49,0,0,1,133.37,86.7Z"/><path class="cls-37" d="M226.6,227.15a9.11,9.11,0,0,1,5.61,4,8.58,8.58,0,0,1-2.58,11.59l-1,.65-.42,0a31.49,31.49,0,0,1-8.07.24c-.28-.14-.47-.3-.18-.6a2.9,2.9,0,0,1,.79-.48c5.88-3,6.55-9.65,4.48-14.14-.21-.45-.71-.9-.19-1.47A1.21,1.21,0,0,1,226.6,227.15Z"/><path class="cls-37" d="M138.59,99.1a8.39,8.39,0,0,1,8.07,6.14,8.55,8.55,0,0,1-3.82,9.63l-.78.49h-8.61a11,11,0,0,0,5.11-4.17,11.22,11.22,0,0,0,.22-11.56A4.74,4.74,0,0,1,138.59,99.1Z"/><path class="cls-3" d="M219.89,243.41h8.36a5.92,5.92,0,0,1-3.11.7H199.2l-.08-.23h.08c.48-.46,1.09-.33,1.66-.33,4.92,0,9.83,0,14.75,0a13.33,13.33,0,0,0,3.45-.36A.91.91,0,0,1,219.89,243.41Z"/><path class="cls-38" d="M212.9,203.42a9,9,0,0,1,.21,2.47l0,.07c-1.51.65-3.07.36-4.61.21-.38-.18-.47-.51-.06-.63a32.55,32.55,0,0,0,4.43-2.25A.13.13,0,0,0,212.9,203.42Z"/><path class="cls-39" d="M247.36,242l.7-.46C248,242,247.86,242.25,247.36,242Z"/><path class="cls-7" d="M79.06,213.92l-24.07,0-12.79,0a8.48,8.48,0,0,1,8.51-8.12l25.72,0a1.74,1.74,0,0,1,1.19-.38c.35,0,.7,0,1,0q45.52,0,91,0a9.35,9.35,0,0,1,7.38,3.06,8.87,8.87,0,0,1,2,4.13,1.54,1.54,0,0,1-.21,1.44,3.35,3.35,0,0,1-2.14.35l-27.91,0H81.41C80.62,214.3,79.77,214.5,79.06,213.92Z"/><path class="cls-6" d="M178.87,213.8a8.48,8.48,0,0,0-8.15-8.09c-8.15,0-16.3,0-24.44,0H76.44a8.42,8.42,0,0,1,6.48-8.37,3.56,3.56,0,0,0,.51-.23,1.51,1.51,0,0,1,1.17-.41c.54,0,1.09,0,1.63,0l97.54,0a13.74,13.74,0,0,1,2.32.1,1.27,1.27,0,0,1,.42.11,5.25,5.25,0,0,1,1.6,2.87,12.11,12.11,0,0,1,.21,6.05,10,10,0,0,1-2.05,4.4,10.32,10.32,0,0,1-6.81,3.75,1.17,1.17,0,0,1-.46,0Z"/><path class="cls-40" d="M186.34,197.06l-1.63,0-101.29,0H65.74c-2.86,0-6.06-2-7-4.37a1.69,1.69,0,0,1,1.5-.45c6.56,0,13.11,0,19.67,0a11.11,11.11,0,0,0,2,0q47.64,0,95.27,0a11.73,11.73,0,0,1,8,2.81C185.77,195.58,186.45,196.1,186.34,197.06Z"/><path class="cls-8" d="M80,192.65l-19.61.05c-.54,0-1.08,0-1.62,0l-.21-.08a8.85,8.85,0,0,1,.47-8.79l44.88,0h10.47l.11.15a19.22,19.22,0,0,0-1.43,4.64.68.68,0,0,1-.41.54,5.18,5.18,0,0,1-2,.18q-11.56,0-23.13,0a8.23,8.23,0,0,0-6.29,2.49A3.88,3.88,0,0,1,80,192.65Z"/><path class="cls-31" d="M219.89,243.41h-.7a11.41,11.41,0,0,1-2.29.23H200.53a1.92,1.92,0,0,1-1.34-.22c-.08-.32,0-.68-.26-.95a2,2,0,0,1-.6-1,8.2,8.2,0,0,0-8.16-5.38q-29.19,0-58.39,0a3.51,3.51,0,0,1-2.25-.35l0-.09a1.57,1.57,0,0,1-.86-.9,14,14,0,0,1-1.07-7.16,1,1,0,0,1,.3-.62,1.16,1.16,0,0,1,.4-.19,5.26,5.26,0,0,1,1.5-.12l76.65,0c.19,0,.39,0,.58,0,2.51.14,5-.07,7.53,0,2.78,0,5.57,0,8.35,0a5.19,5.19,0,0,1,1.72.17.76.76,0,0,1,.36.28,11.86,11.86,0,0,1,1.14,9.69,10,10,0,0,1-5.54,6.2Z"/><path class="cls-32" d="M129.53,235.8c.31,0,.62,0,.93,0l60.36,0a8.44,8.44,0,0,1,8.05,6,3.7,3.7,0,0,1,.07.69c.06.75-.1,1.23-1,1a3.86,3.86,0,0,0-1,0c-18.41,0-36.82.06-55.23,0A12.85,12.85,0,0,1,130.38,237C130.11,236.59,129.59,236.36,129.53,235.8Z"/><path class="cls-33" d="M127.9,227.17c-.09,3,.07,5.89,1.64,8.54-4,0-8,0-12.06,0l-20.77,0a1.5,1.5,0,0,1-.22-1.43,8.69,8.69,0,0,1,6.9-7.25c.3-.07.59-.19.9-.23a39.33,39.33,0,0,1,4.3-.08q8.67,0,17.33,0C126.6,226.74,127.34,226.58,127.9,227.17Z"/><path class="cls-41" d="M103.94,227.19a8.66,8.66,0,0,0-6.39,4.76,8.56,8.56,0,0,0-.85,3.78H90.65q0-4.27,0-8.55a1.75,1.75,0,0,1,1.5-.43q5.15,0,10.29,0A1.72,1.72,0,0,1,103.94,227.19Z"/><path class="cls-33" d="M199.19,243.43h20a5.51,5.51,0,0,1-2.46.46H199.19C199.19,243.73,199.19,243.58,199.19,243.43Z"/><path class="cls-9" d="M79.06,213.92c.54,0,1.08,0,1.63,0l96.44,0c.58,0,1.16,0,1.74,0l0,.06a.73.73,0,0,1,.2.32.77.77,0,0,1-.2.72,1.14,1.14,0,0,1-.37.18,9.2,9.2,0,0,1-2,.09c-11.55,0-23.1,0-34.65,0a13,13,0,0,0-11.49,6.53,4.84,4.84,0,0,1-.83,1.11,1.38,1.38,0,0,1-.42.17,7.65,7.65,0,0,1-1.85.12H81.24a3.65,3.65,0,0,1-2.26-.36l-.21-.06A9.13,9.13,0,0,1,79.06,213.92Z"/><path class="cls-14" d="M79,222.79c.31,0,.62-.05.93-.05l48.68,0,.7,0a.42.42,0,0,1,.15.42,27.68,27.68,0,0,1-1.29,4l-.24.06H90.65c-2.12-.16-4.27.26-6.37-.27A7.65,7.65,0,0,1,79,222.79Z"/><path class="cls-20" d="M166.06,167.09a11.81,11.81,0,0,1-.49,13,.6.6,0,0,1-.4.48,1.77,1.77,0,0,1-.44.09,12.42,12.42,0,0,1-2.09.09c-14,0-28.05,0-42.08,0-.38,0-.79.08-1.09-.26s-.82-.18-1.23-.18c-5,0-10-.06-15,0-4.22.06-7.22-1.69-8.89-5.61a9.06,9.06,0,0,1,.93-7.64c.5,0,1,0,1.51,0l67.54,0c.5,0,1,0,1.51,0Z"/><path class="cls-42" d="M119.48,180.53a12.21,12.21,0,0,1,2.76-.19h41.5c.46,0,.93,0,1.39,0,.07.79-.52,1.17-1,1.57a10.74,10.74,0,0,1-6.91,2.3q-14.93,0-29.86,0c-3.72,0-7.44,0-11.16,0a2.37,2.37,0,0,1-1.77-.36l-.08,0A8.44,8.44,0,0,1,119.48,180.53Z"/><path class="cls-43" d="M127.15,86.72a.49.49,0,0,0,.16.05,3,3,0,0,1,.83,3.27,10.25,10.25,0,0,1-1,4.6l-.07.08-.1,0c-1.32,0-2.63,0-4,0H85.25a9.91,9.91,0,0,0,4.81-2.54,9,9,0,0,0,2.41-5.37Z"/><path class="cls-44" d="M127,94.7l.18,0c2.22,0,4.47-.23,6.6.69A9.25,9.25,0,0,1,138.33,99H121.13a9.24,9.24,0,0,0,5.6-3.83C126.83,95.05,126.9,94.87,127,94.7Z"/><path class="cls-45" d="M114.4,183.87l20,0c7.8,0,15.6,0,23.39,0a9.25,9.25,0,0,0,7.32-3.44l.24-.07a1.17,1.17,0,0,1,.45-.08h21a1.12,1.12,0,0,1,.45.08l1,.06a9,9,0,0,1,5,4.2,8,8,0,0,1,1,4.34V189a3,3,0,0,1-2,.37H115.1c-.79,0-1.65.22-2.33-.43A7.8,7.8,0,0,1,114.4,183.87Z"/><path class="cls-46" d="M187.24,180.29H165.37l.2-.22,20.33,0C186.35,180.1,186.84,179.94,187.24,180.29Z"/><path class="cls-47" d="M128.13,90a12.62,12.62,0,0,0-.83-3.27l5.87,0A9,9,0,0,1,128.13,90Z"/><path class="cls-48" d="M225,227.15l-.24-.08a3,3,0,0,1-1-.8,10,10,0,0,0-7.66-3.26c-.86,0-1.79.26-2.59-.32a1.62,1.62,0,0,1,.13-1.12,8.85,8.85,0,0,0,.13-5.55c-.12-.4-.31-.8,0-1.22,9.46,0,18.92-.26,28.37,0a13.61,13.61,0,0,1,12.94,12,5.09,5.09,0,0,1-2.06.27H228.11c-.5,0-1,0-1.51,0Z"/><path class="cls-43" d="M213.74,214.82a9.19,9.19,0,0,1-.17,7.87.92.92,0,0,1-.37.27,4.8,4.8,0,0,1-1.61.16H173.93a6,6,0,0,1-1.61-.12c-.34-.16-.7-.32-.19-.7a3.08,3.08,0,0,1,.85-.35,8,8,0,0,0,5.37-5.89,2.85,2.85,0,0,1,.51-1.28h0c.44-.45,1-.34,1.54-.34,6.5,0,13,0,19.51,0,3.91,0,7.81-.12,11.72-.08a3.25,3.25,0,0,1,1.9.4Z"/><path class="cls-24" d="M186.11,210.1a16.06,16.06,0,0,0,1.89-4.18,2,2,0,0,1,1.53-.4q8.58,0,17.16,0a2.06,2.06,0,0,1,1.54.37l4.91.07a8.83,8.83,0,0,1-2.32,5.51.46.46,0,0,1-.41.11,12.51,12.51,0,0,0-6-1.08c-5.49.05-11,0-16.46,0C187.33,210.52,186.63,210.66,186.11,210.1Z"/><path class="cls-21" d="M210.62,211.48h.19a8.85,8.85,0,0,1,2.76,3.28l-34.66,0c0-.24,0-.47,0-.71a12.14,12.14,0,0,1,3.43-.38c7.16,0,14.31,0,21.46,0a9.27,9.27,0,0,0,6-1.85A1.58,1.58,0,0,1,210.62,211.48Z"/><path class="cls-9" d="M112.78,188.94l5.7,0,74.27,0c.5,0,1,0,1.51,0a8.54,8.54,0,0,1-6.26,7.83c-.25.07-.55,0-.74.26a.52.52,0,0,1-.72,0l-.2,0a9.75,9.75,0,0,0-8.51-4.39c-8.15,0-16.29,0-24.44,0l-71.93,0c-.5,0-1,0-1.51,0a9,9,0,0,1,7.72-3.71C96,189,104.41,188.95,112.78,188.94Z"/><path class="cls-26" d="M186.54,197.11l.72,0,17.08,0a8.38,8.38,0,0,1,8.33,5.8,4,4,0,0,0,.21.41,8.86,8.86,0,0,1-4.66,2.59l-20.22,0A12.36,12.36,0,0,0,186.54,197.11Z"/><path class="cls-25" d="M210.62,211.48a6.91,6.91,0,0,1-5.51,2.56c-8.73.07-17.46,0-26.19,0a.6.6,0,0,1,0-.21,12.43,12.43,0,0,0,7.21-3.75q10.22,0,20.44,0A6.35,6.35,0,0,1,210.62,211.48Z"/><path class="cls-34" d="M171.91,222.69h39.84c.54,0,1.08,0,1.63,0,.31.64-.18,1-.5,1.41a7.22,7.22,0,0,1-5.73,2.94c-.46,0-.93,0-1.4,0l-76.68,0-.93,0c0-1.57.7-2.93,1.14-4.37l.25-.06a2.41,2.41,0,0,1,1.66-.38h39.07A2.12,2.12,0,0,1,171.91,222.69Z"/><path class="cls-49" d="M207.15,227.08a8.82,8.82,0,0,0,6.07-3.93,2.26,2.26,0,0,0,.16-.42l.19,0c2.22.05,4.48-.21,6.61.7a9.13,9.13,0,0,1,4.58,3.7Z"/><path class="cls-29" d="M171.91,222.69H129.53a12.79,12.79,0,0,1,12.1-7.83c12.41-.18,24.82-.07,37.23-.07a8.55,8.55,0,0,1-6.21,7.64C172.4,222.5,172.11,222.44,171.91,222.69Z"/></g></g></svg>