
<svg xmlns="http://www.w3.org/2000/svg" viewBox="0 0 301.38 218.79"><defs><style>.cls-1{fill:#5ebfb5;}.cls-1,.cls-10,.cls-11,.cls-12,.cls-13,.cls-14,.cls-15,.cls-16,.cls-17,.cls-18,.cls-19,.cls-2,.cls-20,.cls-21,.cls-22,.cls-23,.cls-24,.cls-25,.cls-26,.cls-27,.cls-28,.cls-29,.cls-3,.cls-30,.cls-31,.cls-32,.cls-33,.cls-34,.cls-35,.cls-36,.cls-4,.cls-5,.cls-6,.cls-7,.cls-8,.cls-9{fill-rule:evenodd;}.cls-2{fill:#89aec5;}.cls-3{fill:#6bc4c5;}.cls-4{fill:#e3f3f5;}.cls-5{fill:#ebc7de;}.cls-6{fill:#f0f0f4;}.cls-7{fill:#25a7bb;}.cls-8{fill:#d81781;}.cls-9{fill:#a74293;}.cls-10{fill:#d3ecf2;}.cls-11{fill:#df6a9f;}.cls-12{fill:#92cca1;}.cls-13{fill:#d23c8f;}.cls-14{fill:#e2b8d5;}.cls-15{fill:#5a6cb2;}.cls-16{fill:#8accd1;}.cls-17{fill:#b9529a;}.cls-18{fill:#7a4799;}.cls-19{fill:#e5b447;}.cls-20{fill:#e3c0db;}.cls-21{fill:#e6864d;}.cls-22{fill:#fbf3ce;}.cls-23{fill:#deb577;}.cls-24{fill:#a84595;}.cls-25{fill:#d8cd6a;}.cls-26{fill:#d096c1;}.cls-27{fill:#e61d54;}.cls-28{fill:#4db99d;}.cls-29{fill:#f29b7e;}.cls-30{fill:#cc4191;}.cls-31{fill:#f2aa5c;}.cls-32{fill:#e0e16c;}.cls-33{fill:#2076bd;}.cls-34{fill:#ca4292;}.cls-35{fill:#b361a3;}.cls-36{fill:#26a6d8;}</style></defs><title>bg2資產 1@1x</title><g id="圖層_2" data-name="圖層 2"><g id="圖層_1-2" data-name="圖層 1"><path class="cls-1" d="M223.29,128.58l-85.45-.23c-.39,0-.78,0-1.16,0a2.22,2.22,0,0,1-1.55.35q-31-.07-62-.18a10.18,10.18,0,0,1-9.68-9.78c0-.66,0-1.32,0-2a9,9,0,0,1,2.28-6.3,11.48,11.48,0,0,1,9.17-3.93c8.28.1,16.57.07,24.85.09a5,5,0,0,1,2.17.26,7,7,0,0,1,1.24,1.22,9.72,9.72,0,0,0,7,3.18c.58,0,1.17,0,1.75,0l109,.3c.83,0,1.72-.2,2.47.41Q223.31,120.32,223.29,128.58Z"/><path class="cls-2" d="M223.47,60.59q0,2.8,0,5.59c-1.06,2-3.07,2.42-5,2.87a6.23,6.23,0,0,1-1.39.07l-24.48-.06c-.35,0-.69,0-1,0a9.57,9.57,0,0,1-1.16.05q-46.1-.13-92.19-.24a9.23,9.23,0,0,1-7.33-3.16,8.87,8.87,0,0,1-1.94-4,1.55,1.55,0,0,1,.22-1.44,1.31,1.31,0,0,1,.87-.28h.81c32.27.1,64.54.05,96.81.19a8.07,8.07,0,0,1,1.39.06c4.6-.11,9.2,0,13.81,0q9.34,0,18.68.05A2.7,2.7,0,0,1,223.47,60.59Z"/><path class="cls-3" d="M223.33,112.05l-112.58-.3a10.14,10.14,0,0,1-9-4.66l.16-.17a2.87,2.87,0,0,1,1.58-.26l68.46.18a3.51,3.51,0,0,1,.58,0c16.37,0,32.75.07,49.12.1a2.2,2.2,0,0,1,1.65.42Q223.34,109.73,223.33,112.05Z"/><path class="cls-4" d="M223.35,107.4,174,107.26c-.46,0-.93,0-1.39,0-.2-.5.1-.9.27-1.32a8.25,8.25,0,0,0,.6-5c-.1-.5-.35-1.06.17-1.51a4.53,4.53,0,0,1,2.06-.22q18,0,35.94.1a8.64,8.64,0,0,0,6.77-2.77,8.13,8.13,0,0,0,2.07-4,3.6,3.6,0,0,1,.55-1.75,2.06,2.06,0,0,1,2.36.06Q223.37,99.13,223.35,107.4Z"/><path class="cls-1" d="M191.56,68.67c8.2,0,16.4,0,24.6.08a9.79,9.79,0,0,0,7.31-2.57q0,7.8,0,15.6a2.39,2.39,0,0,1-1.75.4c-2.57,0-5.14-.05-7.71-.07a27.86,27.86,0,0,1-4.4-.08,1.22,1.22,0,0,1-.39-.17c-.47-.46-.83-1-1.27-1.5a8.09,8.09,0,0,0-6.2-2.68l-15.21,0a4.47,4.47,0,0,1-1.72-.17c-.55-.71.2-.71.52-.83a9.84,9.84,0,0,0,3.21-1.78,8.53,8.53,0,0,0,2.68-5C191.24,69.44,191.21,69,191.56,68.67Z"/><path class="cls-5" d="M223.47,60.59l-33-.09-1.51,0a1.14,1.14,0,0,1,.12-1.1,8.94,8.94,0,0,0,.29-6.66c-.14-.42-.4-.89.14-1.25a1.34,1.34,0,0,1,.55-.16c3.61-.09,7.23,0,10.84,0a1.16,1.16,0,0,1,.94.37c4.75,0,9.5.1,14.25,0a10,10,0,0,1,7.4,2.61Q223.48,57.45,223.47,60.59Z"/><path class="cls-6" d="M213.94,81.79h9.48q0,4.54,0,9.08H221.1l-.14-.1c-.36-1-.32-2.12-.73-3.13a8.73,8.73,0,0,0-5.29-5.14C214.57,82.35,214,82.43,213.94,81.79Z"/><path class="cls-7" d="M75.33,21.35c-2.6,0-5.19-.05-7.79-.06-11.86,0-23.72-.19-35.58,0-5.16.07-9.3-2.71-10.71-7.54a17.16,17.16,0,0,1,0-5.77A10,10,0,0,1,31,0L180.2.4a10,10,0,0,1,9.88,10c0,5.37-2.26,9-6.62,10.63-.57.21-1.16.37-1.75.56a1.41,1.41,0,0,1-1.16.43c-.46,0-.93,0-1.4,0L77.8,21.72A3.65,3.65,0,0,1,75.33,21.35Z"/><path class="cls-8" d="M75.33,21.35c.74,0,1.47,0,2.21,0l102.19.27c.66,0,1.32,0,2,0,5.22,0,10.44,0,15.66.09a8.35,8.35,0,0,1,7.86,10.07,1.57,1.57,0,0,1-1.14-.08,14.2,14.2,0,0,0-5.15-.74c-23.08,0-46.16-.06-69.24-.2-19.78-.12-39.56-.12-59.34-.21a2.7,2.7,0,0,1-1.48-.19.5.5,0,0,1-.21-.4A8.4,8.4,0,0,1,75.33,21.35Z"/><path class="cls-9" d="M68.76,30.13l131.34.35a11.11,11.11,0,0,1,5.14,1.23c0,.06,0,.13,0,.19.35,1.33-.43,2.35-1.09,3.3A8.21,8.21,0,0,1,197.31,39q-13,.09-26-.06A6.62,6.62,0,0,1,170,39l-29.32-.08a8.94,8.94,0,0,1-2-.12,1.28,1.28,0,0,1-.42-.15c-1-1-1.69-2.38-2.8-3.39a14.43,14.43,0,0,0-10.16-3.87q-22.27,0-44.54-.11l-9.65,0a3.73,3.73,0,0,0-1.93.29c-.42.17-.61-.06-.72-.42a1.29,1.29,0,0,1,0-.72A.48.48,0,0,1,68.76,30.13Z"/><path class="cls-10" d="M171.38,38.6l24.87,0c4.74,0,7.73-2.21,9-6.73a9,9,0,0,1,5,6.58,11.59,11.59,0,0,1,0,4.81,9.87,9.87,0,0,1-8.15,8.2c-.1,0-.19.12-.29.19l-12.57,0-.2,0a6.44,6.44,0,0,1-1.47-1.47,7.9,7.9,0,0,0-6-2.56c-5.18,0-10.36,0-15.54-.05a4.33,4.33,0,0,1-1.72-.17c-.24-.15-.33-.33-.08-.53a2.89,2.89,0,0,1,1-.36,8,8,0,0,0,5.63-6.23A3.08,3.08,0,0,1,171.38,38.6Z"/><path class="cls-11" d="M66,110.73c-6.54,0-13.08-.14-19.62-.06a8.92,8.92,0,0,1-7.64-3.5,7.46,7.46,0,0,1-1.64-6.53,8.71,8.71,0,0,1,8.76-7.33q17,0,34,.08l20.91.06a7.15,7.15,0,0,1,1.73.09c.87.6.11,1.12-.17,1.54-2.07,3.11-2.18,6.43-1.17,9.9.2.69.78,1.26.65,2.06l0,.06c-9.45,0-18.9-.1-28.35-.07a9.42,9.42,0,0,0-6.56,2.84Z"/><path class="cls-12" d="M191.56,68.67a8.43,8.43,0,0,1-6.5,8.35,3.47,3.47,0,0,0-.51.22,1.51,1.51,0,0,1-1.17.41c-.5,0-1,0-1.51,0L84.08,77.4a13.07,13.07,0,0,1-2.2-.11,1.23,1.23,0,0,1-.41-.12,5.25,5.25,0,0,1-1.6-2.88,12.11,12.11,0,0,1-.19-6.05,10,10,0,0,1,2.06-4.39,10.32,10.32,0,0,1,6.82-3.73,1.21,1.21,0,0,1,.46,0l.13.12a8.48,8.48,0,0,0,8.13,8.11q13.38.06,26.77.08Z"/><path class="cls-13" d="M189.27,51.66a9.12,9.12,0,0,1-.31,8.81l-1.74,0L91,60.24c-.62,0-1.24,0-1.86,0l0-.06a.55.55,0,0,1,.18-.88,5.08,5.08,0,0,1,2.07-.19l34,.08c5.52,0,9.81-2.2,12.64-7a2,2,0,0,1,.87-.91,4.87,4.87,0,0,1,1.84-.2l46.44.12a3.26,3.26,0,0,1,2.12.44Z"/><path class="cls-14" d="M101.78,107a11.45,11.45,0,0,1,1-13.2.73.73,0,0,1,.35-.28,6.46,6.46,0,0,1,1.73-.09c9.88,0,19.76,0,29.64.08,10.23.05,20.46-.05,30.69,0a9,9,0,0,1,7.23,3.34,3.33,3.33,0,0,1,1.12,2.69,9,9,0,0,1-.94,7.64c-.31,0-.62,0-.93,0l-69.08-.19C102.32,107.07,102,107,101.78,107Z"/><path class="cls-15" d="M173.55,99.58c-1.64-3.87-4.57-5.63-8.75-5.63q-30.13,0-60.27-.15l-1.51,0a.26.26,0,0,1,.12-.36,1.22,1.22,0,0,1,.41-.15,12.32,12.32,0,0,1,2.09-.09c13.09,0,26.17,0,39.26.14,3.11,0,5.82-.6,8.07-2.8a1.39,1.39,0,0,1,.43-.15,9.38,9.38,0,0,1,1.74-.11l52.63.14a6,6,0,0,1,1.16.06c3.56-.1,7.13,0,10.69,0a1.76,1.76,0,0,1,1.41.41h.08c-.39,5.49-4,8.84-9.52,8.82Z"/><path class="cls-16" d="M81.62,77l1.74,0,101.18.26q8.84,0,17.68.06c2.86,0,6.05,2,7,4.39a1.69,1.69,0,0,1-1.5.45c-6.56,0-13.11,0-19.67-.06a11.31,11.31,0,0,0-2,0q-47.63-.14-95.27-.25a11.73,11.73,0,0,1-8-2.84C82.19,78.49,81.51,78,81.62,77Z"/><path class="cls-17" d="M188,81.73h17.87c1.12,0,2.24,0,3.36,0l.21.08c1.42,1.55,1.42,3.44,1.17,5.32a5.28,5.28,0,0,1-1.7,3.68c-.31,0-.62,0-.93,0l-53.84-.14-.81,0c.66-1.84,1.19-3.73,2-5.52a5,5,0,0,1,2-.18q11.57,0,23.14.07a8.24,8.24,0,0,0,6.3-2.47A3.87,3.87,0,0,1,188,81.73Z"/><path class="cls-18" d="M208.91,90.78a10.43,10.43,0,0,0,1.47-5.36,12.58,12.58,0,0,0-.94-3.65h4.49A9.39,9.39,0,0,1,220,86.4a7.48,7.48,0,0,1,1,4.46Z"/><path class="cls-19" d="M19.47,89.11c-2.48-4.87-.36-10.73,4.58-12.36a8.53,8.53,0,0,1,2.73-.4l25.93.08c.4.29.37.74.44,1.15.84,4.51,3.92,7.09,8.54,7.12,3.37,0,6.74,0,10.11,0a5.65,5.65,0,0,1,1.62.12.92.92,0,0,1,.33.2,1.56,1.56,0,0,1,.26.87,8.13,8.13,0,0,0,4.37,6.79c.27.15.57.3.66.61s-.16.28-.35.29c-11.08,0-22.17-.25-33.25,0-6.12.13-12.23.09-18.35.15a8.71,8.71,0,0,1-6.94-3.22A1.9,1.9,0,0,1,19.47,89.11Z"/><path class="cls-18" d="M19.47,89.11a9.17,9.17,0,0,0,6.06,4.12,9.34,9.34,0,0,0,1.39.12l51.51.15c.19,0,.39,0,.58,0a.53.53,0,0,1,.66-.05.19.19,0,0,1,0,.3c-11.13,0-22.26.07-33.39-.11a8.58,8.58,0,0,0-7.91,12.72,5.56,5.56,0,0,1,.31.86c-1.24,0-2.48-.05-3.72-.06-8.76,0-17.53-.14-26.29,0C4.1,107.13.05,102.93,0,98.35a9,9,0,0,1,7.15-9.11,9.93,9.93,0,0,1,1.62-.11Z"/><path class="cls-7" d="M54.88,68.09,36.75,68c-7.25,0-14.5-.14-21.74,0A10.14,10.14,0,0,1,5,57.91c0-3.24.74-6.07,3-8.38a9,9,0,0,1,5-2.59l.15.13a5.18,5.18,0,0,1,.48,1.55A13.74,13.74,0,0,0,26.94,59c8.5,0,17,0,25.49.07a10.84,10.84,0,0,1,1.74.07,1.14,1.14,0,0,1,.36.1,42.23,42.23,0,0,1,2.78,3.3c-.07.66-.61,1-.92,1.56A18.39,18.39,0,0,0,55,68Z"/><path class="cls-20" d="M13,46.94a12.15,12.15,0,0,1,1-8,13.8,13.8,0,0,1,13.07-8.21c4,0,7.91,0,11.86,0,0,.51-.39.74-.73,1a8.25,8.25,0,0,0,2.33,14.4c.93.33.92.35.49.94a4.71,4.71,0,0,1-1.5.14c-8.56,0-17.13-.1-25.69,0A1.42,1.42,0,0,1,13,47Z"/><path class="cls-8" d="M73.69,85.07c-4.33,0-8.66.09-13,0a8.36,8.36,0,0,1-8-8.6,7.54,7.54,0,0,1,2.37-5.87l.19.08A3.79,3.79,0,0,1,56.1,72a7.84,7.84,0,0,0,7.2,4.51c5.16.08,10.32,0,15.48.06a4.37,4.37,0,0,1,1.72.17c.57.65-.14.68-.44.78A9.29,9.29,0,0,0,77.2,79a8.5,8.5,0,0,0-3,4.68A2.44,2.44,0,0,1,73.69,85.07Z"/><path class="cls-21" d="M41.46,46.79a9.23,9.23,0,0,1-4.62-2.7,8.54,8.54,0,0,1,1.7-12.94c.16-.11.29-.25.44-.37s.22-.27.42-.18a33.2,33.2,0,0,1,7.88,0c.67.66-.1.85-.42,1.06a11,11,0,0,0-3,2.66c-2.53,3.55-2.62,7.32-1,11.24.19.46.7.91.18,1.47A1.2,1.2,0,0,1,41.46,46.79Z"/><path class="cls-19" d="M47.53,30.79l-7,0c-.37,0-.77.1-1.11-.16A7.12,7.12,0,0,1,43,29.83l25.72.07.08.23h-.08c-.44.45-1,.34-1.54.34-5,0-10.08,0-15.12,0a11.41,11.41,0,0,0-3.65.55A.87.87,0,0,1,47.53,30.79Z"/><path class="cls-22" d="M55.08,70.56a9.15,9.15,0,0,1-.2-2.48V68c1.51-.65,3.07-.35,4.61-.2.38.18.47.51.06.63-1.62.48-2.94,1.53-4.44,2.23A.12.12,0,0,0,55.08,70.56Z"/><path class="cls-23" d="M47.53,30.79h.68a10.66,10.66,0,0,1,2.87-.33c5.39,0,10.79,0,16.18,0,.5,0,1-.08,1.42.35l.25.71a2,2,0,0,1,.6,1,8.19,8.19,0,0,0,8.14,5.4q29.12,0,58.25.15a4.31,4.31,0,0,1,2.38.37l.25.08a1.76,1.76,0,0,1,.82,1.07,14.23,14.23,0,0,1,1.12,6.65,1.65,1.65,0,0,1-.25.88,1,1,0,0,1-.37.24,4.81,4.81,0,0,1-1.62.15L61.6,47.3l-.58,0c-2.59-.14-5.18.05-7.76,0s-5.41,0-8.12,0a5.15,5.15,0,0,1-1.72-.17.77.77,0,0,1-.36-.29,12,12,0,0,1-1.39-8.57,10,10,0,0,1,5.2-7C47.1,31.09,47.31,30.93,47.53,30.79Z"/><path class="cls-24" d="M138.3,38.44c-.31,0-.62,0-.93,0l-60.23-.17a8.33,8.33,0,0,1-8.06-5.86,6.45,6.45,0,0,1-.15-.9c0-.47.17-.74.68-.71.31,0,.62,0,.93,0q27.69.08,55.37.16c5.12,0,9.05,2.36,12,6.49A5.31,5.31,0,0,1,138.3,38.44Z"/><path class="cls-25" d="M140.15,47.06a16.5,16.5,0,0,0-1.59-8.55l27.47,0c1.78,0,3.57,0,5.35.05a8.33,8.33,0,0,1-7,8.37,1.28,1.28,0,0,0-.31.15,1.74,1.74,0,0,1-1.51.44q-10.47,0-20.95-.06A1.74,1.74,0,0,1,140.15,47.06Z"/><path class="cls-25" d="M68.69,30.83l-20.47-.06a5.93,5.93,0,0,1,3.12-.68c5.78,0,11.56,0,17.34,0C68.68,30.37,68.68,30.6,68.69,30.83Z"/><path class="cls-26" d="M140.15,47.06l24,.06c5.69,0,11.37.1,17.06.06a8.76,8.76,0,0,1,8.08,4.48l-50.51-.15-.07-.16c.21-1.31.85-2.51,1.06-3.83,0-.2.22-.3.4-.38Z"/><path class="cls-17" d="M79.69,93.72a1.11,1.11,0,0,0,0-.18,1.72,1.72,0,0,1,1.5-.44q10.15,0,20.31.05a1.72,1.72,0,0,1,1.5.45c0,.05,0,.11,0,.17l-.23.07-20.65-.08Z"/><path class="cls-13" d="M73.69,85.07A8.59,8.59,0,0,1,80,77.25c.26-.07.55,0,.75-.26a.52.52,0,0,1,.72,0l.2,0a9.74,9.74,0,0,0,8.49,4.41c8.46.06,16.92.06,25.37.08l71,.19c.5,0,1,0,1.51,0a9,9,0,0,1-7.73,3.68c-8.37-.08-16.74-.05-25.1-.07a2.58,2.58,0,0,1-1.89.39c-4.11,0-8.22,0-12.33,0L76,85.52a3.53,3.53,0,0,1-2.36-.38Z"/><path class="cls-27" d="M81.43,76.95l-.72,0-17.08-.07A8.38,8.38,0,0,1,55.3,71.1a3.93,3.93,0,0,0-.21-.42,8.84,8.84,0,0,1,4.68-2.58c.4-.49,1-.45,1.5-.45q8.59,0,17.19,0a1.93,1.93,0,0,1,1.52.43A12.41,12.41,0,0,0,81.43,76.95Z"/><path class="cls-28" d="M80,68.14l-20.21,0L54.86,68a8.84,8.84,0,0,1,2.33-5.51.47.47,0,0,1,.41-.11,12.54,12.54,0,0,0,6,1.1c5.49,0,11,0,16.46,0,.64,0,1.33-.14,1.85.42A16.1,16.1,0,0,0,80,68.14Z"/><path class="cls-29" d="M81.9,64l-20.32-.08a6.69,6.69,0,0,1-4.19-1.37c-.07-.75.47-1.11,1-1.45a8.52,8.52,0,0,1,4.69-1.47l24.61.07a1.74,1.74,0,0,1,1.42.35.69.69,0,0,1,0,.21A12.46,12.46,0,0,0,81.9,64Z"/><path class="cls-30" d="M138.74,51.52c-1.62,3.83-4.7,6.08-8.42,7.48a12,12,0,0,1-4.21.63l-37-.1L89,59.4c-.27-2,.7-3.67,1.88-5.18a9.19,9.19,0,0,1,5.67-3.16A10.75,10.75,0,0,1,98.28,51l38.38.11a3,3,0,0,1,2.12.37Z"/><path class="cls-11" d="M89.09,60c-8.74,0-17.48-.1-26.22-.05a6.87,6.87,0,0,0-5.49,2.55H57.2a8.8,8.8,0,0,1-2.61-3,1.7,1.7,0,0,1,1.5-.45q15.75,0,31.5.08a2,2,0,0,1,1.52.43h0C89.11,59.69,89.1,59.85,89.09,60Z"/><path class="cls-31" d="M73.68,85.14c.31,0,.62,0,.93,0l79.74.21.81,0a9.22,9.22,0,0,1-1.84,5.3.5.5,0,0,1-.2,0,4.5,4.5,0,0,1-2.38.38c-13.12,0-26.23-.05-39.34-.12a10.9,10.9,0,0,0-6.91,2,8.24,8.24,0,0,1-1.25.62l-.24.07-23.3-.06-.7-.08a9.59,9.59,0,0,1-4.23-3.79A8.73,8.73,0,0,1,73.68,85.14Z"/><path class="cls-32" d="M103.25,93.53a8.71,8.71,0,0,1,6.59-2.94c14.43,0,28.86.06,43.29.1a7.22,7.22,0,0,1-5.81,2.95C132.62,93.65,117.94,93.58,103.25,93.53Z"/><path class="cls-33" d="M43.06,46.8l.24.08a3,3,0,0,1,1,.8A10,10,0,0,0,51.91,51c.87,0,1.78-.24,2.59.31a1.57,1.57,0,0,1-.12,1.13,8.79,8.79,0,0,0,0,5.92,1.33,1.33,0,0,1,.07,1.12c-9.43,0-18.85.12-28.27-.12A13.73,13.73,0,0,1,13,47a5.06,5.06,0,0,1,2.06-.26l25,.07c.47,0,.93,0,1.39,0Z"/><path class="cls-34" d="M54.42,59.43a9.08,9.08,0,0,1,.05-8.13.92.92,0,0,1,.38-.27,5.19,5.19,0,0,1,1.73-.15L94,51c.72,0,1.49-.17,2.09.44a10.73,10.73,0,0,0-4.59,2.52,8.84,8.84,0,0,0-2.44,5.6l-34.52-.07Z"/><path class="cls-35" d="M96.14,51.42l-39.85-.13-1.63,0c-.3-.64.18-1,.5-1.41a7.21,7.21,0,0,1,5.75-2.92c.5,0,1,0,1.51,0l76.43.21c.42,0,.85,0,1.28.06a17.67,17.67,0,0,1-1.34,4.32c-.85,0-1.7,0-2.55,0Z"/><path class="cls-36" d="M60.91,46.92a8.82,8.82,0,0,0-6.09,3.92,2.66,2.66,0,0,0-.16.42l-.19,0c-2.22-.06-4.48.2-6.61-.71a9.15,9.15,0,0,1-4.57-3.71Z"/><path class="cls-1" d="M301.18,218.63l-85.46-.23c-.39,0-.77,0-1.16,0a2.22,2.22,0,0,1-1.55.35q-31-.08-62-.18a10.17,10.17,0,0,1-9.68-9.77c0-.66,0-1.32,0-2a9,9,0,0,1,2.28-6.3,11.48,11.48,0,0,1,9.17-3.92c8.28.1,16.57.07,24.85.09a5,5,0,0,1,2.17.26A7,7,0,0,1,181,198.2a9.72,9.72,0,0,0,7,3.18c.58,0,1.17,0,1.75,0l109,.3c.83,0,1.72-.2,2.47.41Q301.2,210.37,301.18,218.63Z"/><path class="cls-2" d="M301.37,150.64q0,2.8,0,5.59c-1.06,2-3.07,2.42-5,2.87a6.29,6.29,0,0,1-1.39.07l-24.48-.06c-.35,0-.69,0-1,0a9.78,9.78,0,0,1-1.16.05q-46.1-.13-92.19-.24a9.23,9.23,0,0,1-7.33-3.16,8.87,8.87,0,0,1-1.94-4,1.55,1.55,0,0,1,.22-1.44,1.31,1.31,0,0,1,.87-.28h.81c32.27.1,64.54.05,96.81.19a8.16,8.16,0,0,1,1.39.06c4.6-.11,9.21,0,13.81,0q9.34,0,18.68.05A2.7,2.7,0,0,1,301.37,150.64Z"/><path class="cls-3" d="M301.23,202.1l-112.58-.3a10.14,10.14,0,0,1-9-4.66l.16-.17a2.87,2.87,0,0,1,1.58-.26l68.46.18a3.5,3.5,0,0,1,.58,0c16.37,0,32.75.07,49.12.1a2.2,2.2,0,0,1,1.65.42Q301.23,199.77,301.23,202.1Z"/><path class="cls-4" d="M301.24,197.44l-49.35-.13c-.46,0-.93,0-1.39,0-.2-.5.1-.9.27-1.32a8.25,8.25,0,0,0,.6-5c-.1-.5-.35-1.06.17-1.51a4.52,4.52,0,0,1,2.06-.22q18,0,35.94.1a8.64,8.64,0,0,0,6.77-2.77,8.13,8.13,0,0,0,2.07-4,3.61,3.61,0,0,1,.55-1.75,2.06,2.06,0,0,1,2.36.06Q301.26,189.18,301.24,197.44Z"/><path class="cls-1" d="M269.45,158.72c8.2,0,16.4,0,24.6.08a9.8,9.8,0,0,0,7.31-2.57q0,7.8,0,15.6a2.39,2.39,0,0,1-1.75.4c-2.57,0-5.14-.05-7.71-.07a27.86,27.86,0,0,1-4.4-.08,1.23,1.23,0,0,1-.39-.17c-.47-.46-.83-1-1.27-1.5a8.09,8.09,0,0,0-6.2-2.68l-15.21,0a4.45,4.45,0,0,1-1.72-.17c-.55-.71.2-.71.52-.83a9.84,9.84,0,0,0,3.21-1.78,8.54,8.54,0,0,0,2.68-5C269.14,159.49,269.11,159,269.45,158.72Z"/><path class="cls-5" d="M301.37,150.64l-33-.09c-.5,0-1,0-1.51,0a1.14,1.14,0,0,1,.12-1.1,8.94,8.94,0,0,0,.29-6.66c-.14-.42-.4-.89.14-1.25a1.34,1.34,0,0,1,.55-.16c3.61-.09,7.23,0,10.84,0a1.16,1.16,0,0,1,.94.37c4.75,0,9.5.1,14.25,0a10,10,0,0,1,7.4,2.61Q301.37,147.5,301.37,150.64Z"/><path class="cls-6" d="M291.83,171.84h9.48q0,4.54,0,9.08H299l-.14-.1c-.36-1-.32-2.12-.73-3.13a8.73,8.73,0,0,0-5.29-5.14C292.46,172.4,291.87,172.48,291.83,171.84Z"/><path class="cls-7" d="M153.22,111.39c-2.6,0-5.19-.05-7.79-.06-11.86,0-23.72-.19-35.58,0-5.16.07-9.3-2.71-10.71-7.54a17.16,17.16,0,0,1,0-5.77A10,10,0,0,1,108.88,90l149.21.4a10,10,0,0,1,9.88,10c0,5.37-2.26,9-6.62,10.63-.57.21-1.16.37-1.75.56a1.41,1.41,0,0,1-1.16.43c-.46,0-.93,0-1.4,0l-101.36-.28A3.65,3.65,0,0,1,153.22,111.39Z"/><path class="cls-8" d="M153.22,111.39c.74,0,1.47,0,2.21,0l102.19.27c.66,0,1.32,0,2,0,5.22,0,10.44,0,15.66.09a8.35,8.35,0,0,1,7.86,10.07,1.57,1.57,0,0,1-1.14-.08,14.2,14.2,0,0,0-5.15-.74c-23.08,0-46.16-.06-69.24-.2-19.78-.12-39.56-.12-59.34-.21a2.69,2.69,0,0,1-1.48-.19.5.5,0,0,1-.21-.4A8.4,8.4,0,0,1,153.22,111.39Z"/><path class="cls-9" d="M146.65,120.18l131.34.35a11.11,11.11,0,0,1,5.14,1.23c0,.06,0,.13,0,.19.35,1.33-.43,2.35-1.09,3.3A8.21,8.21,0,0,1,275.2,129q-13,.09-26-.06a6.62,6.62,0,0,1-1.28.05l-29.32-.08a9,9,0,0,1-2-.12,1.28,1.28,0,0,1-.42-.15c-1-1-1.69-2.38-2.8-3.39a14.43,14.43,0,0,0-10.16-3.87q-22.27,0-44.54-.11l-9.65,0a3.73,3.73,0,0,0-1.93.29c-.42.17-.61-.06-.72-.42a1.29,1.29,0,0,1,0-.72A.48.48,0,0,1,146.65,120.18Z"/><path class="cls-10" d="M249.27,128.65l24.87,0c4.74,0,7.73-2.21,9-6.73a9,9,0,0,1,5,6.58,11.59,11.59,0,0,1,0,4.81,9.87,9.87,0,0,1-8.15,8.2c-.1,0-.19.12-.29.19l-12.57,0-.2,0a6.45,6.45,0,0,1-1.47-1.47,7.9,7.9,0,0,0-6-2.56c-5.18,0-10.36,0-15.54-.05a4.33,4.33,0,0,1-1.72-.17c-.24-.15-.33-.33-.08-.53a2.89,2.89,0,0,1,1-.36,8,8,0,0,0,5.63-6.23A3.08,3.08,0,0,1,249.27,128.65Z"/><path class="cls-11" d="M143.85,200.78c-6.54,0-13.08-.14-19.62-.06a8.92,8.92,0,0,1-7.64-3.5,7.46,7.46,0,0,1-1.64-6.53,8.71,8.71,0,0,1,8.76-7.33q17,0,34,.09l20.91.06a7.19,7.19,0,0,1,1.73.09c.87.6.11,1.12-.17,1.54-2.07,3.11-2.18,6.43-1.17,9.9.2.69.78,1.26.65,2.06l0,.06c-9.45,0-18.9-.1-28.36-.07a9.42,9.42,0,0,0-6.56,2.84Z"/><path class="cls-12" d="M269.45,158.72a8.43,8.43,0,0,1-6.5,8.35,3.36,3.36,0,0,0-.51.22,1.51,1.51,0,0,1-1.17.41c-.5,0-1,0-1.51,0L162,167.45a13.06,13.06,0,0,1-2.2-.11,1.23,1.23,0,0,1-.41-.12,5.25,5.25,0,0,1-1.6-2.88,12.11,12.11,0,0,1-.19-6.05,10,10,0,0,1,2.06-4.39,10.32,10.32,0,0,1,6.82-3.73,1.21,1.21,0,0,1,.46,0l.13.12a8.48,8.48,0,0,0,8.13,8.11q13.38.06,26.77.08Z"/><path class="cls-13" d="M267.16,141.7a9.11,9.11,0,0,1-.31,8.81c-.58,0-1.16,0-1.74,0l-96.21-.26c-.62,0-1.24,0-1.86,0l0-.06a.55.55,0,0,1,.18-.88,5.08,5.08,0,0,1,2.07-.19l34,.08c5.52,0,9.81-2.2,12.64-7a2,2,0,0,1,.87-.91,4.87,4.87,0,0,1,1.84-.2l46.44.12a3.26,3.26,0,0,1,2.12.44Z"/><path class="cls-14" d="M179.67,197.08a11.45,11.45,0,0,1,1-13.2.72.72,0,0,1,.35-.28,6.5,6.5,0,0,1,1.73-.09c9.88,0,19.76,0,29.64.08,10.23.05,20.46-.06,30.69,0a9,9,0,0,1,7.23,3.34,3.33,3.33,0,0,1,1.12,2.69,9.05,9.05,0,0,1-.94,7.64c-.31,0-.62,0-.93,0l-69.08-.19C180.21,197.12,179.94,197.09,179.67,197.08Z"/><path class="cls-15" d="M251.44,189.63c-1.64-3.87-4.57-5.63-8.75-5.63q-30.13,0-60.27-.15l-1.51,0a.26.26,0,0,1,.12-.36,1.22,1.22,0,0,1,.41-.15,12.23,12.23,0,0,1,2.09-.09c13.09,0,26.18,0,39.26.14,3.11,0,5.82-.6,8.07-2.8a1.34,1.34,0,0,1,.43-.15,9.21,9.21,0,0,1,1.74-.11l52.63.14a5.88,5.88,0,0,1,1.16.06c3.56-.1,7.13,0,10.69,0a1.75,1.75,0,0,1,1.41.41H299c-.39,5.49-4,8.84-9.52,8.82Z"/><path class="cls-16" d="M159.52,167l1.74,0,101.18.27q8.84,0,17.68.06c2.86,0,6.05,2,7,4.39a1.7,1.7,0,0,1-1.5.45c-6.56,0-13.11,0-19.67-.06a11.11,11.11,0,0,0-2,0q-47.63-.14-95.27-.25a11.74,11.74,0,0,1-8-2.84C160.09,168.53,159.4,168,159.52,167Z"/><path class="cls-17" d="M265.89,171.78h17.87c1.12,0,2.24,0,3.36,0l.21.08c1.42,1.55,1.42,3.44,1.17,5.32a5.28,5.28,0,0,1-1.7,3.68c-.31,0-.62,0-.93,0L232,180.72l-.81,0c.66-1.84,1.19-3.73,2-5.52a5,5,0,0,1,2-.18q11.57,0,23.14.07a8.24,8.24,0,0,0,6.3-2.47A3.87,3.87,0,0,1,265.89,171.78Z"/><path class="cls-18" d="M286.8,180.83a10.42,10.42,0,0,0,1.47-5.36,12.58,12.58,0,0,0-.94-3.64h4.49a9.39,9.39,0,0,1,6.1,4.61,7.48,7.48,0,0,1,1,4.46Z"/><path class="cls-19" d="M97.36,179.16c-2.48-4.87-.36-10.73,4.58-12.36a8.53,8.53,0,0,1,2.73-.4l25.93.08c.4.29.37.74.44,1.15.84,4.51,3.92,7.09,8.54,7.12,3.37,0,6.74,0,10.11,0a5.65,5.65,0,0,1,1.61.12.92.92,0,0,1,.33.2,1.56,1.56,0,0,1,.26.87,8.13,8.13,0,0,0,4.37,6.79c.27.15.57.3.66.61s-.16.28-.35.29c-11.08,0-22.17-.25-33.25,0-6.12.13-12.23.09-18.35.15A8.71,8.71,0,0,1,98,180.58,1.91,1.91,0,0,1,97.36,179.16Z"/><path class="cls-7" d="M132.77,158.13l-18.13-.08c-7.25,0-14.5-.14-21.74,0A10.14,10.14,0,0,1,82.9,148c0-3.24.74-6.07,3-8.38a9,9,0,0,1,5-2.59l.16.13a5.18,5.18,0,0,1,.48,1.55A13.74,13.74,0,0,0,104.83,149c8.5,0,17,0,25.49.07a10.84,10.84,0,0,1,1.74.07,1.14,1.14,0,0,1,.36.1,42.21,42.21,0,0,1,2.78,3.3c-.07.66-.61,1-.92,1.56A18.39,18.39,0,0,0,132.9,158Z"/><path class="cls-20" d="M90.9,137a12.15,12.15,0,0,1,1-8A13.8,13.8,0,0,1,105,120.78c4,0,7.91,0,11.86,0,0,.51-.39.74-.73,1a8.25,8.25,0,0,0,2.33,14.4c.93.33.92.35.49.94a4.71,4.71,0,0,1-1.5.14c-8.56,0-17.13-.1-25.69,0a1.42,1.42,0,0,1-.89-.19Z"/><path class="cls-8" d="M151.59,175.11c-4.33,0-8.66.09-13,0a8.36,8.36,0,0,1-8-8.6,7.54,7.54,0,0,1,2.37-5.87l.19.08a3.79,3.79,0,0,1,.83,1.38,7.84,7.84,0,0,0,7.2,4.51c5.16.08,10.32,0,15.48.06a4.37,4.37,0,0,1,1.72.17c.57.64-.14.68-.44.78a9.29,9.29,0,0,0-2.87,1.45,8.5,8.5,0,0,0-3,4.68A2.44,2.44,0,0,1,151.59,175.11Z"/><path class="cls-21" d="M119.35,136.83a9.23,9.23,0,0,1-4.62-2.7,8.54,8.54,0,0,1,1.7-12.94c.16-.11.29-.25.44-.37s.22-.27.42-.18a33.2,33.2,0,0,1,7.88,0c.67.66-.1.85-.42,1.06a11,11,0,0,0-3,2.66c-2.53,3.55-2.62,7.32-1,11.24.19.46.7.91.18,1.47A1.2,1.2,0,0,1,119.35,136.83Z"/><path class="cls-19" d="M125.43,120.83l-7,0c-.37,0-.77.1-1.11-.16a7.12,7.12,0,0,1,3.56-.76l25.72.07.08.23h-.08c-.44.45-1,.34-1.54.34-5,0-10.08,0-15.12,0a11.41,11.41,0,0,0-3.65.55A.87.87,0,0,1,125.43,120.83Z"/><path class="cls-22" d="M133,160.61a9.15,9.15,0,0,1-.2-2.48v-.07c1.51-.65,3.07-.35,4.61-.2.37.18.47.51.06.63-1.62.48-2.94,1.53-4.44,2.23A.12.12,0,0,0,133,160.61Z"/><path class="cls-23" d="M125.43,120.83h.68a10.66,10.66,0,0,1,2.87-.33c5.39,0,10.79,0,16.18,0,.5,0,1-.08,1.42.35l.25.71a2,2,0,0,1,.6,1,8.19,8.19,0,0,0,8.14,5.4q29.12,0,58.25.15a4.31,4.31,0,0,1,2.38.37l.25.08a1.76,1.76,0,0,1,.82,1.07,14.24,14.24,0,0,1,1.12,6.65,1.65,1.65,0,0,1-.25.88,1,1,0,0,1-.37.24,4.81,4.81,0,0,1-1.62.15l-76.66-.2-.58,0c-2.59-.14-5.18.05-7.76,0s-5.41,0-8.12,0a5.15,5.15,0,0,1-1.72-.17.77.77,0,0,1-.36-.29,12,12,0,0,1-1.39-8.57,10,10,0,0,1,5.2-7C125,121.14,125.2,121,125.43,120.83Z"/><path class="cls-24" d="M216.2,128.48c-.31,0-.62,0-.93,0L155,128.35A8.33,8.33,0,0,1,147,122.5a6.45,6.45,0,0,1-.15-.9c0-.47.17-.74.68-.71.31,0,.62,0,.93,0q27.69.08,55.37.16c5.12,0,9.05,2.36,12,6.49A5.33,5.33,0,0,1,216.2,128.48Z"/><path class="cls-25" d="M218,137.11a16.5,16.5,0,0,0-1.59-8.55l27.47,0c1.78,0,3.57,0,5.35.05a8.33,8.33,0,0,1-7,8.37,1.27,1.27,0,0,0-.31.15,1.74,1.74,0,0,1-1.51.44q-10.47,0-20.95-.06A1.74,1.74,0,0,1,218,137.11Z"/><path class="cls-25" d="M146.58,120.88l-20.47-.06a5.93,5.93,0,0,1,3.12-.68c5.78,0,11.56,0,17.34,0C146.58,120.42,146.58,120.65,146.58,120.88Z"/><path class="cls-26" d="M218,137.11l24,.06c5.69,0,11.37.1,17.06.06a8.76,8.76,0,0,1,8.08,4.48l-50.51-.15-.07-.16c.21-1.31.85-2.51,1.06-3.83,0-.2.22-.3.4-.38Z"/><path class="cls-17" d="M157.58,183.76a1.07,1.07,0,0,0,0-.18,1.72,1.72,0,0,1,1.5-.44q10.15,0,20.31.06a1.72,1.72,0,0,1,1.5.45c0,.05,0,.11,0,.17l-.23.07L160,183.8Z"/><path class="cls-13" d="M151.59,175.11a8.59,8.59,0,0,1,6.27-7.82c.26-.07.55,0,.75-.26a.52.52,0,0,1,.72,0l.2,0a9.74,9.74,0,0,0,8.49,4.41c8.46.06,16.92.06,25.37.08l71,.2c.5,0,1,0,1.51,0a9,9,0,0,1-7.73,3.68c-8.37-.08-16.74-.05-25.1-.07a2.57,2.57,0,0,1-1.89.39c-4.11,0-8.22,0-12.33,0l-64.91-.18a3.53,3.53,0,0,1-2.36-.38Z"/><path class="cls-27" d="M159.32,167l-.72,0L141.51,167a8.38,8.38,0,0,1-8.32-5.82,3.93,3.93,0,0,0-.21-.42,8.84,8.84,0,0,1,4.68-2.58c.4-.49,1-.45,1.5-.45q8.59,0,17.19,0a1.93,1.93,0,0,1,1.52.43A12.41,12.41,0,0,0,159.32,167Z"/><path class="cls-28" d="M157.88,158.18l-20.21,0-4.91-.09a8.84,8.84,0,0,1,2.33-5.51.47.47,0,0,1,.41-.11,12.54,12.54,0,0,0,6,1.1c5.49,0,11,0,16.46,0,.64,0,1.33-.14,1.85.42A16.1,16.1,0,0,0,157.88,158.18Z"/><path class="cls-29" d="M159.79,154l-20.32-.08a6.69,6.69,0,0,1-4.19-1.37c-.07-.75.47-1.11,1-1.45a8.52,8.52,0,0,1,4.69-1.47l24.61.07a1.74,1.74,0,0,1,1.42.35.69.69,0,0,1,0,.21A12.46,12.46,0,0,0,159.79,154Z"/><path class="cls-30" d="M216.63,141.57c-1.62,3.83-4.7,6.08-8.42,7.48a12,12,0,0,1-4.21.63l-37-.1-.13-.13c-.26-2,.7-3.67,1.88-5.18a9.19,9.19,0,0,1,5.67-3.16,10.76,10.76,0,0,1,1.74-.08l38.38.11a3,3,0,0,1,2.12.37Z"/><path class="cls-11" d="M167,150.06c-8.74,0-17.48-.1-26.22-.05a6.87,6.87,0,0,0-5.49,2.55h-.19a8.79,8.79,0,0,1-2.61-3,1.7,1.7,0,0,1,1.5-.45q15.75,0,31.5.08a2,2,0,0,1,1.52.43h0C167,149.74,167,149.9,167,150.06Z"/><path class="cls-31" d="M151.57,175.18c.31,0,.62,0,.93,0l79.74.22.81,0a9.23,9.23,0,0,1-1.84,5.3.5.5,0,0,1-.2,0,4.5,4.5,0,0,1-2.38.38c-13.12,0-26.23-.05-39.34-.12a10.9,10.9,0,0,0-6.91,2,8.14,8.14,0,0,1-1.25.62l-.24.07-23.3-.07-.7-.08a9.59,9.59,0,0,1-4.23-3.79A8.73,8.73,0,0,1,151.57,175.18Z"/><path class="cls-32" d="M181.14,183.58a8.71,8.71,0,0,1,6.59-2.94c14.43,0,28.86.06,43.29.1a7.22,7.22,0,0,1-5.81,2.95C210.52,183.7,195.83,183.62,181.14,183.58Z"/><path class="cls-33" d="M121,136.84l.24.08a3,3,0,0,1,1,.8A10,10,0,0,0,129.8,141c.87,0,1.78-.24,2.59.31a1.57,1.57,0,0,1-.12,1.13,8.79,8.79,0,0,0,0,5.92,1.32,1.32,0,0,1,.07,1.12c-9.43,0-18.85.12-28.27-.12a13.73,13.73,0,0,1-13.15-12.29A5.07,5.07,0,0,1,93,136.8l25,.07c.47,0,.93,0,1.39,0Z"/><path class="cls-34" d="M132.31,149.48a9.08,9.08,0,0,1,.05-8.13.92.92,0,0,1,.38-.27,5.2,5.2,0,0,1,1.73-.15l37.46.11c.72,0,1.49-.17,2.09.44a10.73,10.73,0,0,0-4.59,2.52,8.84,8.84,0,0,0-2.44,5.6l-34.52-.07Z"/><path class="cls-35" d="M174,141.47l-39.85-.13-1.63,0c-.3-.64.18-1,.5-1.41A7.21,7.21,0,0,1,138.8,137c.5,0,1,0,1.51,0l76.43.21c.43,0,.85,0,1.28.06a17.67,17.67,0,0,1-1.34,4.32c-.85,0-1.7,0-2.55,0Z"/><path class="cls-36" d="M138.8,137a8.82,8.82,0,0,0-6.08,3.92,2.66,2.66,0,0,0-.16.42l-.19,0c-2.22-.06-4.48.2-6.61-.71a9.15,9.15,0,0,1-4.57-3.71Z"/></g></g></svg>