<svg xmlns="http://www.w3.org/2000/svg" viewBox="0 0 232.82 211.61"><defs><style>.cls-1,.cls-6{fill:#fde375;}.cls-1{stroke:#fde375;}.cls-1,.cls-2,.cls-5,.cls-6{stroke-miterlimit:10;}.cls-2{fill:none;}.cls-2,.cls-5{stroke:#462e26;}.cls-3,.cls-5{fill:#462e26;}.cls-4{fill:#fff;}.cls-5,.cls-6{stroke-width:0.5px;}.cls-6{stroke:#f8f06f;}.cls-7{opacity:0.51;}.cls-8{fill:#2ea7e0;}</style></defs><title>fronthalogo-fronthair</title><g id="圖層_1" data-name="圖層 1"><rect class="cls-1" x="0.5" y="0.5" width="231.82" height="210.61" rx="30" ry="30"/><path class="cls-2" d="M143.45,156.34" transform="translate(-32.53 -45.52)"/><path class="cls-2" d="M130.55,190.46" transform="translate(-32.53 -45.52)"/></g><g id="圖層_3" data-name="圖層 3"><path class="cls-3" d="M217,77.8V234.88c0,7.72,12,7.73,12,0V77.8c0-7.72-12-7.73-12,0Z" transform="translate(-32.53 -45.52)"/><path class="cls-3" d="M67.2,77.8V234.88c0,7.72,12,7.73,12,0V77.8c0-7.72-12-7.73-12,0Z" transform="translate(-32.53 -45.52)"/><line class="cls-3" x1="190.42" y1="88.55" x2="40.66" y2="88.55"/><path class="cls-3" d="M223,128.07H73.2c-7.72,0-7.73,12,0,12H223c7.72,0,7.73-12,0-12Z" transform="translate(-32.53 -45.52)"/><path class="cls-2" d="M137.1,150" transform="translate(-32.53 -45.52)"/></g><g id="圖層_4" data-name="圖層 4"><circle class="cls-4" cx="50.18" cy="93.11" r="35.37"/><path class="cls-3" d="M112.07,138.63c-.23,12.11-7.52,23.24-19,27.52a29.72,29.72,0,0,1-32.86-8.65c-17.33-20.52,1.34-52.62,27.73-47.8a29.75,29.75,0,0,1,24.16,28.93c.15,7.71,12.15,7.74,12,0A42,42,0,0,0,96.85,99.78c-16-6.05-35.18-.79-46,12.49A41.34,41.34,0,0,0,91.1,179.13c19.23-3.75,32.6-21.28,33-40.5C124.22,130.91,112.22,130.91,112.07,138.63Z" transform="translate(-32.53 -45.52)"/><circle class="cls-4" cx="183.56" cy="93.11" r="35.37"/><path class="cls-3" d="M245.46,138.63c-.23,12.11-7.52,23.24-19,27.52a29.72,29.72,0,0,1-32.86-8.65c-17.33-20.52,1.34-52.62,27.73-47.8a29.75,29.75,0,0,1,24.16,28.93c.15,7.71,12.15,7.74,12,0a42,42,0,0,0-27.23-38.86c-16-6.05-35.18-.79-46,12.49a41.34,41.34,0,0,0,40.23,66.86c19.23-3.75,32.6-21.28,33-40.5C257.61,130.91,245.61,130.91,245.46,138.63Z" transform="translate(-32.53 -45.52)"/></g><g id="圖層_5" data-name="圖層 5"><path class="cls-3" d="M146,111.07l-19.45,41.46c-2.45,5.21,5.31,9.79,7.77,4.54l19.45-41.46c2.45-5.21-5.31-9.79-7.77-4.54Z" transform="translate(-32.53 -45.52)"/><path class="cls-3" d="M145.93,116l18.53,40.67c2.4,5.26,10.16.69,7.77-4.54L153.7,111.46c-2.4-5.26-10.16-.69-7.77,4.54Z" transform="translate(-32.53 -45.52)"/></g><g id="圖層_9" data-name="圖層 9"><path class="cls-3" d="M123.08,200.7c14.92,9.64,35.47,10.78,50,0,6.13-4.55.16-15-6.06-10.36-11.33,8.41-26.24,7.52-37.88,0-6.51-4.2-12.53,6.18-6.06,10.36Z" transform="translate(-32.53 -45.52)"/><path class="cls-3" d="M124.94,181.58l-13.77,23.84c-2.9,5,4.87,9.56,7.77,4.54l13.77-23.84c2.9-5-4.87-9.56-7.77-4.54Z" transform="translate(-32.53 -45.52)"/><path class="cls-3" d="M163.08,186.12,176.84,210c2.9,5,10.68.49,7.77-4.54l-13.77-23.84c-2.9-5-10.68-.49-7.77,4.54Z" transform="translate(-32.53 -45.52)"/></g><g id="圖層_10" data-name="圖層 10"><rect class="cls-5" x="51.76" y="25.66" width="127.57" height="21.22" rx="5.5" ry="5.5"/><path class="cls-6" d="M107.33,84.32s-1.06,8,3.83,10.66,8.09,0,8.09,0-6-1.94-8.94-6.3Z" transform="translate(-32.53 -45.52)"/><path class="cls-6" d="M163.34,84.24s-.64,6.3,3.62,9.45,11.5,2.4,11.5,2.4A25,25,0,0,1,163.34,84.24Z" transform="translate(-32.53 -45.52)"/><g class="cls-7"><path class="cls-8" d="M60.7,144.4c.47,10.54,11.16,15.5,20.5,15.71,5.79.13,5.79-8.87,0-9-3.95-.09-11.27-1.61-11.5-6.71-.26-5.77-9.26-5.8-9,0Z" transform="translate(-32.53 -45.52)"/></g><g class="cls-7"><path class="cls-8" d="M193.57,144.4c.47,10.54,11.16,15.5,20.5,15.71,5.79.13,5.79-8.87,0-9-3.95-.09-11.27-1.61-11.5-6.71-.26-5.77-9.26-5.8-9,0Z" transform="translate(-32.53 -45.52)"/></g></g></svg>