<svg xmlns="http://www.w3.org/2000/svg" viewBox="0 0 30.91 39.16"><defs><style>.cls-1{fill:#49436c;fill-rule:evenodd;}</style></defs><title>facem資產 3@1x</title><g id="圖層_2" data-name="圖層 2"><g id="圖層_1-2" data-name="圖層 1"><path class="cls-1" d="M30.32.4a.58.58,0,0,0-.83-.33c-1.75,1-3.72,1.45-5.55,2.27C21.66,0,17.32.74,14.38,1,10.59,1.27,6.72.84,3.21,2.53,0,4.07-.51,7.57.39,10.55a61.21,61.21,0,0,0,2.49,6.06,15,15,0,0,1,1.5,4.71c0,.42-.09.83-.13,1.24,0,.1-.07.2-.1.29v2.9A16.44,16.44,0,0,0,5.79,30.9a20,20,0,0,0,3.05,3.59c1.74,1.81,4.41,4.9,7.29,4.65s5.07-3.56,6.39-5.75a24.58,24.58,0,0,0,3.53-9.7C28.31,16.08,32.45,8.49,30.32.4ZM1.49,10.13A6.94,6.94,0,0,1,.61,8c-.08-.34.47-.49.55-.15a6.54,6.54,0,0,0,.83,2C2.17,10.16,1.68,10.44,1.49,10.13ZM2.87,5.55a8.06,8.06,0,0,0-.27,2.53.29.29,0,0,1-.57,0A8.57,8.57,0,0,1,2.32,5.4C2.43,5.07,3,5.21,2.87,5.55Zm24.3,2.12a7.77,7.77,0,0,1-3.23,3.11c-.31.2-.59-.28-.29-.47a7.24,7.24,0,0,0,3-2.91C26.82,7.07,27.31,7.35,27.17,7.67ZM25.8,5.81c.14-.32.69-.18.55.15-1.7,4-6,5-10.09,5a.27.27,0,1,1,0-.55C20,10.38,24.2,9.55,25.8,5.81ZM15,9a11.78,11.78,0,0,0,7-1.2c.32-.17.61.3.29.47A12.42,12.42,0,0,1,14.9,9.57C14.54,9.51,14.69,9,15,9ZM6.58,29.58a3.36,3.36,0,0,0-.25-1.51c-.15-.32.34-.6.49-.28a3.93,3.93,0,0,1,.32,1.78A.28.28,0,0,1,6.58,29.58Zm1.14,1.78a6.58,6.58,0,0,0-.13-1.57c-.08-.34.47-.49.55-.14a7.28,7.28,0,0,1,.15,1.72A.28.28,0,0,1,7.72,31.36Zm1.71-.27a5.89,5.89,0,0,0-.13-1.43c-.09-.34.46-.49.55-.15A6.5,6.5,0,0,1,10,31.08.29.29,0,0,1,9.42,31.08ZM10,33.41c0-.32-.13-.63-.14-1s.56-.35.57,0,.13.63.14,1S10,33.76,10,33.41Zm1.28-1.09a5.89,5.89,0,0,0-.13-1.43c-.08-.34.46-.49.55-.15a6.46,6.46,0,0,1,.15,1.58A.28.28,0,0,1,11.27,32.32Zm1,2.81c-.13-.54-.15-1.1-.28-1.64-.08-.34.47-.49.55-.15.13.54.15,1.1.28,1.64C12.91,35.32,12.36,35.47,12.28,35.13ZM12,27.7a9.43,9.43,0,0,0,1.28-.61c2.36-1.35,3.16.15,4.41.93C16.08,29.08,13.8,28.57,12,27.7Zm6.21,1.94a4.82,4.82,0,0,1,.29,1.44c0,.35-.56.35-.57,0a4.38,4.38,0,0,0-.28-1.3C17.57,29.45,18.12,29.31,18.24,29.64ZM12.7,32.18A3.72,3.72,0,0,0,12.56,31c-.11-.34.44-.48.55-.15a4.24,4.24,0,0,1,.15,1.31A.29.29,0,0,1,12.7,32.18Zm.72,4.59c-.12-.36-.17-.74-.28-1.09s.44-.48.55-.15.17.74.28,1.1S13.53,37.11,13.42,36.77Zm.7-2A7.36,7.36,0,0,0,14,33.07c-.08-.34.47-.49.55-.15a8,8,0,0,1,.15,1.85A.28.28,0,0,1,14.12,34.78Zm.57,2.47a3.16,3.16,0,0,0-.13-1c-.11-.34.44-.48.55-.14a3.72,3.72,0,0,1,.15,1.17A.29.29,0,0,1,14.69,37.25Zm0-5.07a4.23,4.23,0,0,0-.13-1.3c-.11-.34.44-.48.55-.15a4.72,4.72,0,0,1,.15,1.44A.29.29,0,0,1,14.69,32.18Zm1,4a4.22,4.22,0,0,0-.13-1.3c-.11-.34.44-.48.55-.15a4.72,4.72,0,0,1,.15,1.44A.29.29,0,0,1,15.68,36.15Zm.14-2.46a1.58,1.58,0,0,0-.1-.68c-.15-.32.34-.6.49-.28a2.2,2.2,0,0,1,.18,1A.29.29,0,0,1,15.83,33.68Zm.72-3.08c-.11-.34.44-.48.55-.15a3.82,3.82,0,0,1,.15,1.17.29.29,0,0,1-.57,0A3.33,3.33,0,0,0,16.55,30.61Zm.27,6.23a2.33,2.33,0,0,0-.1-1c-.15-.32.34-.6.49-.28a2.89,2.89,0,0,1,.18,1.23A.28.28,0,0,1,16.82,36.83Zm.57-2.6c0-.32-.13-.63-.14-1s.56-.35.57,0,.13.63.14,1S17.41,34.58,17.39,34.23Zm1.14,1.64a.28.28,0,0,1-.57,0v-1a.28.28,0,0,1,.57,0Zm.15-2.53a5.17,5.17,0,0,1-.15-1.58.29.29,0,0,1,.57,0,4.75,4.75,0,0,0,.13,1.43C19.34,33.54,18.79,33.68,18.68,33.35Zm1.13.89a1.59,1.59,0,0,0-.1-.68c-.15-.32.34-.6.49-.28a2.19,2.19,0,0,1,.18,1A.29.29,0,0,1,19.81,34.23Zm-.14-4.38v-1.1a.28.28,0,0,1,.57,0v1.1A.28.28,0,0,1,19.67,29.85Zm.57,2.05c0-.32-.13-.63-.14-1s.56-.35.57,0,.13.63.14,1S20.25,32.26,20.24,31.9Zm.71-3.15v-.68a.29.29,0,0,1,.57,0v.68A.29.29,0,0,1,20.95,28.75Zm.43,4.38a.9.9,0,0,0-.1-.41c-.16-.32.33-.6.49-.28a1.52,1.52,0,0,1,.18.69A.29.29,0,0,1,21.38,33.14Zm.85-2.33a.29.29,0,0,1-.57,0V30a.29.29,0,0,1,.57,0Zm.71-3a.29.29,0,0,1-.57,0V26.7a.29.29,0,0,1,.57,0Zm1.59-4.08c-1.53,1.66-4.89,5-6.91,2.48a3.25,3.25,0,0,0-2.74-1.28c-1.26,0-2.76,1.54-3.9,1.88-2.78.83-4-.85-5.21-3a.5.5,0,0,0-.46-.26c0-.27,0-.54.06-.82a4.64,4.64,0,0,0,.12-1.31c.39-3.59,1.07-7.29,0-10.74,1.86-.39,4.8,1.79,6.61,2,2.72.29,5.89-1.9,8.45-.71,1.92.9,2.5,4.36,3,6.12s.8,3.65,1.37,5.44A.5.5,0,0,0,24.53,23.71ZM27.6,10.13a3.71,3.71,0,0,1-2,1.63c-.34.13-.49-.4-.15-.53a3.11,3.11,0,0,0,1.68-1.38C27.28,9.54,27.77,9.82,27.6,10.13Z"/></g></g></svg>